<svg xmlns="http://www.w3.org/2000/svg" width="306" height="112"><path fill="#e4348a" d="M0 112h306V54H0z"/><path fill="#fff" d="M10.35 66.9H6.2v-7.33h24.35c7.5 0 13.66 2.6 13.66 11 0 5.87-3.08 10.1-9 11.04v.13c6.3.44 9.76 4.55 9.76 10.8 0 9.34-6.61 12.25-15.17 12.25H6.2v-7.32h4.15V66.9zm15.23 11.37c4.47 0 6.92-1.46 6.92-6.25 0-4.61-2.9-5.5-6.92-5.5h-3.9v11.75h3.9zm.82 19.57c3.96 0 6.86-1.9 6.86-6.12 0-4.8-2.2-6.5-6.86-6.5h-4.72v12.62h4.72zm43.86 2.21h-.12c-2.84 4.74-5.3 5.75-10.7 5.75-9.88 0-11.33-7.45-11.33-10.04 0-9.85 8.18-12.25 15.67-12.25 2.39 0 3.96.06 5.79.19 0-3.54 0-8.28-4.53-8.28-3.46 0-4.03 2.53-4.47 6.07H49.62c.57-9.29 6.8-12.13 15.3-12.13 13.71 0 15.6 7.52 15.6 13.9v14.58h3.08v6.95H70.26v-4.74zM66.74 89.2c-3.84 0-7.68 1.14-7.68 5.56 0 2.33 1.26 4.1 3.84 4.1 4.97 0 6.86-5.3 6.86-9.66h-3.02zm44.68-5.62c0-2.84 0-6.5-4.16-6.5-2.95 0-4.9 2.4-4.9 7.32v13.45h3.2v6.95H87.13v-6.95h3.52V77.32h-3.52v-6.95h14.53v5.75h.13c1.63-5.05 5.91-6.76 10.82-6.76 4.72 0 10.51 1.77 10.51 9.41v19.07h3.21v6.95h-18.06v-6.95h3.15V83.57zm43.41-7.02v-.12h-4.72v-6.07h18.63v6.44h-3.34l-8 6.2 8.5 14.83h2.84v6.95h-17.5v-6.95h2.96l-4.66-8.33-4.53 3.72v4.61h2.33v6.95h-17.56v-6.95h3.53v-32.9h-3.53V58h15.23v26.72zm38.96-6.19h8.18v11h-8.94c0-3.6-1.57-5.57-5.35-5.57-3.08 0-4.78 1.27-4.78 3.29 0 1.2.88 2.27 2.96 2.84l7.3 2.08c6.73 1.9 9.38 4.55 9.38 10.8 0 7.2-5.23 10.99-12.15 10.99-6.3 0-8.18-2.53-9.19-4.55h-.12v3.54h-8.56V93.04h9.31c0 2.02.38 3.67 1.2 4.68.88 1.07 2.26 1.64 4.4 1.64 2.96 0 4.54-1.58 4.54-3.41 0-1.65-.7-2.15-4.16-3.29l-6.04-2.01c-5.92-1.96-9.44-4.3-9.44-10.74 0-6.95 6.23-10.55 12.27-10.55 3.9 0 6.36.95 9.19 3.8v-2.79zm15.23 6.95h-3.53v-6.95h15.23v27.47h3.21v6.95H205.5v-6.95h3.53V77.32zm0-10.3h11.7V57.3h-11.7v9.72zm40.52-2.08h-3.83V58h15.54v39.84h3.52v6.95H250.3v-5.5h-.13c-2.07 4.87-5.6 6.51-10.7 6.51-10.06 0-13.4-9.16-13.4-18.19 0-8.84 2.33-18.25 13.72-18.25 4.09 0 8.37 1.45 9.63 5.75h.12V64.94zm-11.39 22.67c0 6.13.76 10.86 5.67 10.86 5.16 0 6.1-6.94 6.1-10.86 0-4.17-.82-10.92-6.1-10.92-4.91 0-5.67 4.3-5.67 10.92zm60.86 7.52c-1.45 8.08-8.5 10.67-15.86 10.67-12.59 0-17.62-7.58-17.62-18.38 0-10.67 6.54-18.06 17.37-18.06 11.7 0 16.48 7.77 16.48 18.88 0 .95-.06 1.52-.12 2.15h-22.03c0 3.73.7 8.47 5.92 8.47 3.84 0 4.9-2.6 4.9-3.73h10.96zm-11.33-10.8c0-2.4-.19-8.02-4.97-8.02-5.29 0-5.48 6.57-5.48 8.02h10.45z"/><path fill="#a19587" d="M0 47.15h305.57V.62H0z"/><path fill="#fff" d="M9.31 12.4H6.2V6.9h18.27c5.62 0 10.25 1.95 10.25 8.26 0 4.4-2.31 7.58-6.75 8.29v.1c4.72.32 7.32 3.4 7.32 8.1 0 7-4.96 9.19-11.38 9.19H6.2v-5.5h3.1V12.41zm11.43 8.54c3.35 0 5.2-1.1 5.2-4.7 0-3.45-2.18-4.12-5.2-4.12h-2.93v8.82h2.93zm.62 14.69c2.97 0 5.14-1.43 5.14-4.6 0-3.6-1.65-4.88-5.14-4.88H17.8v9.48h3.55zm41.08-2.04c-1.09 6.06-6.38 8-11.9 8-9.45 0-13.23-5.68-13.23-13.78 0-8.01 4.92-13.55 13.04-13.55 8.78 0 12.37 5.82 12.37 14.16 0 .72-.05 1.14-.1 1.62H46.1c0 2.8.52 6.35 4.44 6.35 2.88 0 3.68-1.95 3.68-2.8h8.22zm-8.5-8.1c0-1.8-.14-6.02-3.73-6.02-3.97 0-4.11 4.93-4.11 6.02h7.84zm23.6 6.16h4.82v2.84c0 5.02-3.11 7.1-7.84 7.1-6.98 0-8.5-3.45-8.5-8.76v-12.6H63.1V15h2.93v-3.74l8.78-3.08V15h8.78v5.22h-8.78v13.5c0 1.61.19 2.66 1.42 2.66 1.32 0 1.32-1.47 1.32-2.75v-2zm20.5 0h4.82v2.84c0 5.02-3.12 7.1-7.84 7.1-6.99 0-8.5-3.45-8.5-8.76v-12.6h-2.93V15h2.93v-3.74l8.78-3.08V15h5.81v5.22h-5.8v13.5c0 1.61.18 2.66 1.4 2.66 1.33 0 1.33-1.47 1.33-2.75v-2zm31.17 1.94c-1.1 6.06-6.38 8-11.9 8-9.45 0-13.23-5.68-13.23-13.78 0-8.01 4.91-13.55 13.04-13.55 8.78 0 12.37 5.82 12.37 14.16 0 .72-.05 1.14-.1 1.62h-16.52c0 2.8.52 6.35 4.44 6.35 2.88 0 3.68-1.95 3.68-2.8h8.22zm-8.5-8.1c0-1.8-.15-6.02-3.74-6.02-3.96 0-4.1 4.93-4.1 6.02h7.83zm12.08-5.26h-2.64V15h10.86v5.22h.1c.7-3.27 2.97-5.97 6.51-5.97 1.23 0 1.98.14 2.27.37v8.1a4.6 4.6 0 00-2.27-.51c-3.35 0-6.04 2.89-6.04 7.67v5.74h3.58v5.21h-15.23v-5.21h2.86v-15.4z"/></svg>