<svg width="654" height="164" viewBox="0 0 654 164" fill="none" xmlns="http://www.w3.org/2000/svg">
<g clip-path="url(#clip0_194_2302)">
<path d="M148.732 128.604C133.934 149.427 109.465 163.726 81.784 163.726C36.6176 163.726 0 127.494 0 82.7997C0 38.1052 36.6176 1.87354 81.784 1.87354C109.471 1.87354 133.934 16.3208 148.732 37.1514L122.348 54.9092C113.475 41.7273 98.238 33.1447 81.2712 33.1447C54.0372 33.1447 31.9586 55.4538 31.9586 82.9729C31.9586 110.491 54.0372 132.8 81.2712 132.8C97.7306 132.8 113.39 123.22 122.348 110.699L148.732 128.604Z" fill="#60C17C"/>
<path fill-rule="evenodd" clip-rule="evenodd" d="M228.474 156.577C220.324 161.134 210.96 163.726 201 163.726C169.491 163.726 143.948 137.778 143.948 105.771C143.948 73.7629 169.491 47.8149 201 47.8149C210.96 47.8149 220.324 50.4075 228.474 54.9644V47.815H258.054V105.638C258.054 105.682 258.054 105.727 258.054 105.771C258.054 105.815 258.054 105.859 258.054 105.903V163.726H228.474V156.577ZM228.474 112.888C225.254 124.523 214.679 133.059 202.132 133.059C187.025 133.059 174.78 120.691 174.78 105.436C174.78 90.1813 187.025 77.8136 202.132 77.8136C214.679 77.8136 225.254 86.3493 228.474 97.9851V112.888Z" fill="#60C17C"/>
<path d="M305.469 163.726L257.858 47.856L291.536 47.8564L318.9 115.313L344.76 47.8564H378.238L331.729 163.726H305.469Z" fill="#60C17C"/>
<path fill-rule="evenodd" clip-rule="evenodd" d="M426.639 163.725C458.871 163.725 484.997 137.597 484.997 105.367C484.997 73.1372 458.871 47.0093 426.639 47.0093C394.408 47.0093 368.281 73.1372 368.281 105.367C368.281 137.597 394.408 163.725 426.639 163.725ZM426.639 132.994C441.898 132.994 454.266 120.625 454.266 105.367C454.266 90.1094 441.898 77.7403 426.639 77.7403C411.38 77.7403 399.012 90.1094 399.012 105.367C399.012 120.625 411.38 132.994 426.639 132.994Z" fill="#60C17C"/>
<path d="M525.607 163.726H495.801L496.216 9.70499L525.607 0V163.726Z" fill="#60C17C"/>
<path fill-rule="evenodd" clip-rule="evenodd" d="M594.769 163.725C627 163.725 653.127 137.597 653.127 105.367C653.127 73.1372 627 47.0093 594.769 47.0093C562.538 47.0093 536.411 73.1372 536.411 105.367C536.411 137.597 562.538 163.725 594.769 163.725ZM594.769 132.994C610.028 132.994 622.396 120.625 622.396 105.367C622.396 90.1094 610.028 77.7403 594.769 77.7403C579.51 77.7403 567.142 90.1094 567.142 105.367C567.142 120.625 579.51 132.994 594.769 132.994Z" fill="#60C17C"/>
</g>
<defs>
<clipPath id="clip0_194_2302">
<rect width="653.127" height="163.726" fill="white"/>
</clipPath>
</defs>
</svg>