<svg xmlns="http://www.w3.org/2000/svg" viewBox="0 0 477.19 363.38"><title>King's College London</title><rect width="477.19" height="363.38" fill="#e2231a"/><path d="M232.3,150.08a1.21,1.21,0,0,0,1.27-.89L237.91,135c.39-1.14,0-1.78-.76-1.78-.39,0-.64.12-1.15.89-.77,1-1.79,2.55-2.55,2.55a1.36,1.36,0,0,1-1.15-.51,15.68,15.68,0,0,0-12.3-5.21c-18.88,0-35.35,20-35.35,38.67,0,10.72,6.51,16.85,16,16.85,3.95,0,7.52-.77,13-3.07a11.18,11.18,0,0,1,3.58-1c1.27,0,1.4,1.66,1.53,3.83a1,1,0,0,0,.84,1.14h.16a1.3,1.3,0,0,0,1.28-.64l5.35-15.57c.51-1.27-.12-1.91-.89-1.91s-1.27.38-1.91,1.4c-4.09,6.89-14,12.25-22.08,12.25-6.25,0-9.06-4.72-9.06-11.48,0-16.21,14.67-37,27.18-37,6.51,0,11.49,4,11.49,12.25,0,.64-.13,1.53-.13,2.17a1.2,1.2,0,0,0,1.12,1.27h.16Z" fill="#fff"/><path d="M257.82,144.85c-12.12,0-22.33,14.55-22.33,29.23,0,6.51,3.32,11.87,9.57,11.87,12.25,0,22.46-15.83,22.46-29.23,0-6.51-3.32-11.87-9.7-11.87Zm.39,3.19c2.93,0,4.21,2.3,4.21,5.62,0,10-10.21,28.84-17.61,28.84-2.94,0-4.22-2-4.22-5.36,0-10.85,10.21-29.1,17.62-29.1Z" fill="#fff"/><path d="M289,135a3.39,3.39,0,0,1-.38,1.28c-6.51,15.06-12.76,29.22-19,44.29a9.74,9.74,0,0,0-.89,3.31,2.39,2.39,0,0,0,2.43,2.3,9.1,9.1,0,0,0,3.06-.51,22,22,0,0,0,9.83-6.77,1.61,1.61,0,0,0,.51-1.14c0-.64-.26-1-.77-1a1.62,1.62,0,0,0-.89.38,45.32,45.32,0,0,1-5.75,4.08,3.06,3.06,0,0,1-1,.39.34.34,0,0,1-.38-.29.17.17,0,0,1,0-.1,3.14,3.14,0,0,1,.26-1l20.16-46.58a4.77,4.77,0,0,0,.51-1.92c0-.5-.38-.76-1-.76-1,0-2.93.13-4.47.26-1.27.12-4.21.25-6.12.5-.77.13-1.28.64-1.28,1.15a1,1,0,0,0,1,1H285a26.92,26.92,0,0,1,3.57.51.64.64,0,0,1,.51.63Z" fill="#fff"/><path d="M309.89,135a3.39,3.39,0,0,1-.38,1.28c-6.51,15.06-12.76,29.22-19,44.29a9.74,9.74,0,0,0-.89,3.31,2.41,2.41,0,0,0,2.43,2.3,9.1,9.1,0,0,0,3.06-.51,21.92,21.92,0,0,0,9.83-6.77,1.61,1.61,0,0,0,.51-1.14c0-.64-.26-1-.77-1a1.62,1.62,0,0,0-.89.38,44.51,44.51,0,0,1-5.74,4.08,3.59,3.59,0,0,1-1,.39.34.34,0,0,1-.38-.29.17.17,0,0,1,0-.1,3.14,3.14,0,0,1,.26-1L317,133.62a4.77,4.77,0,0,0,.51-1.92c0-.5-.38-.76-1-.76-1,0-2.93.13-4.46.26-1.28.12-4.22.25-6.13.5-.77.13-1.28.64-1.28,1.15a1,1,0,0,0,1,1h.16a26.92,26.92,0,0,1,3.57.51.62.62,0,0,1,.51.63Z" fill="#fff"/><path d="M337.2,177.39a2.21,2.21,0,0,0,.52-1.27,1.14,1.14,0,0,0-1.15-1.15,1.57,1.57,0,0,0-1,.51c-2.55,2.68-6.26,6.13-10.72,6.13-3.32,0-5.24-2.43-5.24-6.38a19.1,19.1,0,0,1,1.92-7.53,113.67,113.67,0,0,0,11.1-2.56c9.32-2.93,14.17-7.66,14.17-13.53,0-4-2.81-5.74-6.76-5.74-11.49,0-27.19,15.83-27.19,31.14,0,5.24,3.44,8.94,8.68,8.94,7.14,0,11.74-3.58,15.69-8.56Zm-5.1-15.18a54.86,54.86,0,0,1-9.1,2.29,42.56,42.56,0,0,1,8-11.35c1.66-1.79,4.47-4.09,7.15-4.09,1.91,0,2.94,1.15,2.94,3.32,0,4.47-3.84,8.17-9.07,9.83Z" fill="#fff"/><path d="M405.87,177.39a2.26,2.26,0,0,0,.51-1.27,1.14,1.14,0,0,0-1.13-1.15h0a1.57,1.57,0,0,0-1,.51c-2.55,2.68-6.25,6.13-10.72,6.13-3.32,0-5.23-2.43-5.23-6.38a19.31,19.31,0,0,1,1.91-7.53c2.81-.51,8.3-1.66,11.11-2.56,9.31-2.93,14.16-7.66,14.16-13.53,0-4-2.81-5.74-6.76-5.74-11.49,0-27.19,15.83-27.19,31.14,0,5.24,3.32,8.94,8.68,8.94,7.15,0,11.74-3.58,15.7-8.56Zm-5.11-15.18a54.41,54.41,0,0,1-9.06,2.29,42.56,42.56,0,0,1,8-11.35c1.66-1.79,4.47-4.09,7.15-4.09,1.91,0,2.93,1.15,2.93,3.32,0,4.47-3.82,8.17-9.06,9.83Z" fill="#fff"/><path d="M378.81,154.29a39.65,39.65,0,0,0-.38-4.08c0-.89,1-1.53,2.55-1.53s2.94,1.27,4.47,1.27a2.36,2.36,0,0,0,2.31-2.41s0-.09,0-.14c0-1.53-1.15-2.29-2.94-2.29a10.61,10.61,0,0,0-5.61,1.78,3.79,3.79,0,0,1-1.66.64,2.49,2.49,0,0,1-1.15-.38,11.35,11.35,0,0,0-6.39-1.53,17.13,17.13,0,0,0-13.27,7c-2.55,3.57-3.06,5.87-3.06,8.42a11.42,11.42,0,0,0,1.4,5.36c.13.25.51.64.51.89,0,.51-.76.77-2.29,1.15-2.68.64-6.13,2.42-6.13,5.74,0,2.56,1.4,4.09,4.08,6-4.85,1.28-12.89,4.47-12.89,10s6.77,9.44,16.85,9.44c9.7,0,16.46-4.08,16.46-10.46,0-3.45-3.18-6.51-8.8-9.32s-9.7-4.72-9.7-6.89c0-1.92,1.53-2.81,4.34-2.81,1.53,0,3.57.51,5.11.51,4.59,0,10.84-1.4,14.67-9.57a16.69,16.69,0,0,0,1.53-6.77ZM362,167.7c-2.05,0-3.07-1.79-3.07-4.47a17,17,0,0,1,2.56-8c2.55-4.6,5.87-7.28,9.05-7.28,2,0,3.32,1.28,3.32,3.58a18.93,18.93,0,0,1-2.67,8.93c-3.58,6-6.52,7.28-9.19,7.28Zm-6.26,29c-6.89,0-10.85-3.07-10.85-6.38,0-4,4.47-6.77,8.94-8.3,1.91,1,4.72,2.3,6.89,3.57,3.57,2.17,4.21,3.32,4.21,5.24C364.93,194.27,361.36,196.7,355.74,196.7Z" fill="#fff"/><rect x="62.82" y="283.78" width="351.38" height="4.62" fill="#fff"/><rect x="62.82" y="300.22" width="351.38" height="8.99" fill="#fff"/><path d="M349.73,101.11c0-5.26,3.85-5.78,7.19-6,.64,0,1-.65,1-1.42a1.12,1.12,0,0,0-1.08-1.16H330.72c-.9,0-1.54.51-1.54,1.28a1.48,1.48,0,0,0,1.42,1.54h.12c5.14.39,9.25,1.29,9.25,6.3v7.83a5,5,0,0,1-2.06,4.37,22,22,0,0,1-13.61,4c-16.18,0-23.5-13.49-23.5-27.23,0-18.49,11.68-28.38,24.53-28.38,11.81,0,19.52,5.13,23.88,14,.52,1,1,1.41,1.8,1.41a1.31,1.31,0,0,0,1.16-1.41V62.32A1.19,1.19,0,0,0,351.12,61H351c-.77,0-1.15.51-1.41,1.28-.39,1.55-1.16,2.57-2.31,2.57a6.2,6.2,0,0,1-2.7-1.15c-5.26-3.08-9.76-5.4-19.26-5.4-15.67,0-35.19,8.61-35.19,31.86,0,24.14,18.23,31.59,34.16,31.59a39.5,39.5,0,0,0,25.43-9Z" fill="#fff"/><path d="M365.53,68a2.89,2.89,0,0,0,2.69-1.54,2.32,2.32,0,0,1,.26,1c0,2.57-2.06,5-5.52,6.43a1.38,1.38,0,0,0-.9,1.28c0,.64.64,1,1.41.9,5.65-1,8.73-6.17,8.73-11,0-4.36-2.43-6.68-5.9-6.68-2.31,0-5.4,1.16-5.4,5A4.44,4.44,0,0,0,365.16,68,2.29,2.29,0,0,0,365.53,68Z" fill="#fff"/><path d="M413.43,73.63a1,1,0,0,0,1-1,.93.93,0,0,0,0-.33L412.5,58.86c-.13-.9-.51-1.16-1.16-1.16-.38,0-.77.26-1,.9-.39,1-1,2.06-2.31,2.06-2.19,0-5-2.32-11.18-2.32-8,0-18.49,4.11-18.49,15.16,0,11.56,9.25,15.67,17.21,18.49,8.73,3.09,15.15,5.14,15.15,13.87s-6.68,11.82-13.35,11.82c-7.07,0-15-3.34-18.11-13.74-.26-.9-.65-1.41-1.54-1.41s-1.42.51-1.42,1.66v14.9a1.25,1.25,0,0,0,1.08,1.4h.21c.51,0,.89-.25,1.28-.89.39-.9,1.16-2.32,2.44-2.32,2.57,0,7.58,4.5,16.7,4.5,8.6,0,21.7-3.21,21.7-18.75,0-6.42-2.57-14.77-18.24-19.27-11-3.21-14.51-7.19-14.51-12.71,0-4.88,3.34-8.86,10.54-8.86,5.26,0,10.78,2.44,14.64,10.4.38.77.77,1,1.28,1Z" fill="#fff"/><path d="M197.67,69c0-4.88,1.41-7.32,6.29-8,.9-.12,1.41-.51,1.41-1.28s-.51-1-1.41-1h-22.6c-.9,0-1.42.39-1.42,1s.52,1.16,1.42,1.28c4.88.64,6.29,3.08,6.29,8v42.13c0,4.88-1.41,7.32-6.29,8-.9.13-1.42.52-1.42,1.29s.52,1,1.42,1H204c.9,0,1.41-.39,1.41-1s-.51-1.16-1.41-1.29c-4.88-.64-6.29-3.08-6.29-8Z" fill="#fff"/><path d="M276.91,70.16c.25-6.29,1.41-8.48,6.29-9.12.9-.12,1.41-.51,1.41-1.28s-.51-1-1.41-1H263.81c-.52,0-.9.51-.9,1.16a1.21,1.21,0,0,0,1,1.15c4.11.64,7.06,1.54,7.58,9.12.64,8.86.77,33.91.77,33.91L231.83,58.73H215.78c-.9,0-1.42.39-1.42,1s.52,1.16,1.42,1.28c2.69.39,6.29,1.67,6.29,5.91,0,12.71,0,29.41-.52,43-.25,6.3-1.41,8.48-6.29,9.12-.9.13-1.41.52-1.41,1.29s.51,1,1.41,1h19.4c.51,0,.89-.52.89-1.16a1.21,1.21,0,0,0-1-1.16c-4.11-.64-7.07-1.54-7.58-9.12-.51-8.86-.77-41.22-.77-41.22l47.26,52.66h3s0-37.64.52-51.25Z" fill="#fff"/><path d="M91.71,77.87C91.84,70.67,93,64.64,107,62.71c1.41-.26,2.18-.9,2.18-2.18a1.79,1.79,0,0,0-1.77-1.81h-.16c-8.73.39-12.58.39-23.37.39-9.25,0-21.06-.39-22.86-.39-1.54,0-2.44.64-2.44,1.8s.77,1.79,2.18,1.92c5,.78,12.72,1.93,13.23,16.44.13,4.5.26,26.72.26,50.86,0,15.54-.13,29.15-.39,35.45-.51,14.51-8.22,15.67-13.23,16.44-1.41.13-2.18.9-2.18,1.92s.9,1.8,2.44,1.8c1.8,0,13.61-.38,22.86-.38,10.79,0,16.18,0,24.92.38a1.8,1.8,0,0,0,1.92-1.66v-.14c0-1.28-.77-1.92-2.18-2.18-14-1.93-16.19-8-16.83-15.15-.25-3.09-.51-10.92-.51-19.14s.13-16.18.26-17.85c.12-1.93,1.15-2.57,2.18-2.57a4,4,0,0,1,2.44.9c8.73,7.32,35.57,39.3,50.86,57.79h32.62c1.28,0,1.8-.64,1.8-1.67a1.91,1.91,0,0,0-1.74-2.05h-.06c-6.16-.64-10-1.8-17.72-8-8-6.29-52.66-59.72-52.66-59.72,3.47-4,24-24.91,35.83-35.57,13.87-12.59,19.27-14.26,25.17-15.67a1.85,1.85,0,0,0,1.55-1.93c0-1.15-.78-2-2.57-2-3.08,0-12.33.39-18.24.39-10.27,0-18.75-.39-20.55-.39-1.54,0-2.7.77-2.7,2s1,1.93,2.44,2.19a32.39,32.39,0,0,1,5.91,1.41c2.06.77,3.21,1.67,3.21,3.85a10.51,10.51,0,0,1-2,5.66A91.52,91.52,0,0,1,125.93,87.6c-12.21,12.58-27.23,27.48-32.24,31.59a2,2,0,0,1-1.29.51c-.77,0-1-.89-1-1.79s.12-24.41.38-40.07Z" fill="#fff"/><path d="M62.94,210.19a.91.91,0,0,0-.89.95v.05a1.14,1.14,0,0,0,1.15,1c4.24.25,5.78,3.08,5.78,7.19v35.7c0,4.11-1.54,6.81-5.78,7.19a1.14,1.14,0,0,0-1.15,1,.93.93,0,0,0,.84,1h45.39l2.82-15.16c.26-1-.25-1.67-1-1.67a1.5,1.5,0,0,0-1.41,1c-4,11-10.28,12.33-19.66,12.33S77.46,259.38,77.46,255V218c0-4.36,3.72-5.52,6.42-5.65.77-.12,1.15-.51,1.15-1a1.18,1.18,0,0,0-1.22-1.16H62.94Z" fill="#fff"/><path d="M142.06,264.78c15.92,0,27.22-11,27.22-28,0-14.9-11-27-27.22-27a26.64,26.64,0,0,0-27,26.28v.72C115.06,252.7,125.72,264.78,142.06,264.78Zm-17.86-28c0-13.36,6.43-23.51,17.86-23.51,10.14,0,18.11,9.64,18.11,23.51,0,17.08-7.2,24.53-18.11,24.53C131.4,261.31,124.2,251,124.2,236.78Z" fill="#fff"/><path d="M226.82,264.39l.26-44.95c0-4.11,1.54-6.55,5.78-7.19.77-.13,1.15-.52,1.15-1a.93.93,0,0,0-.84-1H216.11a1,1,0,0,0-1,1c0,.51.39.9,1.16,1,4.24.77,6.29,2.05,6.42,7.19l.64,30.82-34.16-40.07H174.68a1,1,0,0,0-1,1c0,.64.39,1,1.16,1.15,3.59.52,5.26,1.68,5.26,5.14l-.25,37.63c0,4.11-1.55,6.55-5.78,7.19-.77.13-1.16.52-1.16,1a.91.91,0,0,0,.9,1h16.95a1,1,0,0,0,1-1c0-.51-.38-.9-1.16-1-2.95-.51-6.29-1.28-6.42-7.19l-.38-37.88,40.07,47.13Z" fill="#fff"/><path d="M239.28,210.19a.92.92,0,0,0-.9.94v.06a1,1,0,0,0,1.09,1h.07c4.23.38,5.77,3.08,5.77,7.19v35.7c0,4.11-1.54,6.81-5.77,7.19-.78.13-1.16.52-1.16,1a.93.93,0,0,0,.84,1h26.13c11.3,0,30-5.78,30-27.61,0-19.4-14.9-26.59-30.31-26.59Zm14.64,8.73c0-4.87,2.57-5.26,9.37-5.26,11.44,0,23,5.52,23,22.86,0,17.08-9.76,24.4-22.47,24.4H261c-3.59,0-7.06-1-7.06-7.58Z" fill="#fff"/><path d="M329.56,264.78c15.93,0,27.23-11,27.23-28,0-14.9-11-27-27.23-27a26.65,26.65,0,0,0-27,26.3v.7C302.56,252.7,313.22,264.78,329.56,264.78Zm-17.85-28c0-13.36,6.43-23.51,17.85-23.51,10.15,0,18.11,9.64,18.11,23.51,0,17.08-7.19,24.53-18.11,24.53C318.9,261.31,311.71,251,311.71,236.78Z" fill="#fff"/><path d="M414.2,264.39l.26-44.95c0-4.11,1.54-6.55,5.78-7.19.77-.13,1.15-.52,1.15-1a.93.93,0,0,0-.84-1h-17a1,1,0,0,0-1,1c0,.51.39.9,1.16,1,4.24.77,6.29,2.05,6.42,7.19l.64,30.82L376.6,210.19H362.06a1,1,0,0,0-1,1c0,.64.38,1,1.16,1.15,3.59.52,5.26,1.68,5.26,5.14l-.26,37.63c0,4.11-1.54,6.55-5.78,7.19-.77.13-1.15.52-1.15,1a.91.91,0,0,0,.9,1h16.95a1,1,0,0,0,1-1c0-.51-.39-.9-1.16-1-3-.51-6.29-1.28-6.42-7.19l-.39-37.88,40.08,47.13Z" fill="#fff"/></svg>