<svg xmlns="http://www.w3.org/2000/svg" width="1724.84" height="1246.73" viewBox="-50 0 1674.84 1246.73">
  <defs>
    <style>
      .cls-1 {
        fill: #ddede6;
        stroke: #7a847a;
        stroke-miterlimit: 10;
        stroke-width: 40px;
      }

      .cls-2 {
        fill: #7a847a;
      }

      .cls-3 {
        fill: #324a3a;
      }

      .cls-4 {
        fill: #3d5060;
      }

      .cls-5 {
        fill: #3f6570;
      }

      .cls-6 {
        fill: #467979;
      }

      .cls-7 {
        fill: #408e90;
      }

      .cls-8 {
        fill: #628782;
      }

      .cls-9 {
        fill: #569e9a;
      }

      .cls-10 {
        fill: #6aab94;
      }

      .cls-11 {
        fill: #68bdae;
      }

      .cls-12 {
        fill: #7ebba1;
      }

      .cls-13 {
        fill: #9acfa3;
      }

      .cls-14 {
        fill: #8ad0ba;
      }

      .cls-15 {
        fill: #a3dcc2;
      }

      .cls-16 {
        fill: #b8ebc7;
      }
    </style>
  </defs>
  <g id="Layer_2" data-name="Layer 2">
    <circle class="cls-1" cx="780.37" cy="460" r="440"/>
    <g transform="translate(-50,0)">
      <path class="cls-2" d="M184.5,1556.27l59-60.46H274l-68.5,68.61,68.89,82.93H243.78l-54.57-67.43-4.71,4.71v62.72H161.63V1495.81H184.5Z" transform="translate(-161.63 -412)"/>
      <path class="cls-2" d="M383.83,1610.54H319l-16.88,36.81H277.45l75-161.06,72.33,161.06h-25Zm-9.32-21.49L352,1537.52l-23.56,51.53Z" transform="translate(-161.63 -412)"/>
      <path class="cls-2" d="M466.57,1495.81v130h44.56v21.5H443.7V1495.81Z" transform="translate(-161.63 -412)"/>
      <path class="cls-2" d="M616.44,1517.31H555.69v36.41h59v21.49h-59v50.64h60.75v21.5H532.82V1495.81h83.62Z" transform="translate(-161.63 -412)"/>
      <path class="cls-2" d="M820.48,1504v27.09q-19.83-16.59-41-16.59-23.37,0-39.36,16.78T724,1572.07q0,23.85,16.1,40.24t39.45,16.39q12.08,0,20.52-3.93a58.14,58.14,0,0,0,9.76-5.3,114.57,114.57,0,0,0,10.65-8V1639a82.65,82.65,0,0,1-41.22,11.09q-32.49,0-55.45-22.68-22.87-22.86-22.87-55.15,0-28.95,19.14-51.63,23.55-27.77,60.95-27.77Q801.43,1492.87,820.48,1504Z" transform="translate(-161.63 -412)"/>
      <path class="cls-2" d="M840.79,1570.89q0-32,23.46-55t56.14-23q32.39,0,55.55,23.16t23.26,55.65q0,32.67-23.36,55.45t-56.63,22.87q-29.34,0-52.7-20.32Q840.8,1607.31,840.79,1570.89Zm23.07.3q0,25.13,16.88,41.32t38.77,16.19q23.85,0,40.24-16.49,16.38-16.68,16.39-40.63,0-24.24-16.2-40.63t-39.84-16.49q-23.65,0-40,16.49Q863.86,1547.24,863.86,1571.19Z" transform="translate(-161.63 -412)"/>
      <path class="cls-2" d="M1050.82,1495.81v130h44.56v21.5H1028V1495.81Z" transform="translate(-161.63 -412)"/>
      <path class="cls-2" d="M1139.94,1495.81v130h44.56v21.5h-67.43V1495.81Z" transform="translate(-161.63 -412)"/>
      <path class="cls-2" d="M1289.81,1517.31h-60.76v36.41h59v21.49h-59v50.64h60.76v21.5h-83.62V1495.81h83.62Z" transform="translate(-161.63 -412)"/>
      <path class="cls-2" d="M1431.82,1504v27.09q-19.83-16.59-41-16.59-23.37,0-39.36,16.78t-16.09,40.83q0,23.85,16.09,40.24t39.45,16.39q12.08,0,20.52-3.93a58.14,58.14,0,0,0,9.76-5.3,114.57,114.57,0,0,0,10.65-8V1639a82.65,82.65,0,0,1-41.22,11.09q-32.49,0-55.45-22.68-22.87-22.86-22.87-55.15,0-28.95,19.14-51.63,23.55-27.77,60.95-27.77Q1412.79,1492.87,1431.82,1504Z" transform="translate(-161.63 -412)"/>
      <path class="cls-2" d="M1502.49,1517.31v130h-22.87v-130h-34.84v-21.5h92.45v21.5Z" transform="translate(-161.63 -412)"/>
      <path class="cls-2" d="M1580.51,1495.81v151.54h-22.87V1495.81Z" transform="translate(-161.63 -412)"/>
      <path class="cls-2" d="M1624.58,1495.81l41.91,105,42.49-105h25l-68,162.92-66.44-162.92Z" transform="translate(-161.63 -412)"/>
      <path class="cls-2" d="M1836.47,1517.31h-60.75v36.41h59v21.49h-59v50.64h60.75v21.5h-83.62V1495.81h83.62Z" transform="translate(-161.63 -412)"/>
    </g>
  </g>
  <g id="Layer_1" data-name="Layer 1">
    <path class="cls-3" d="M767.92,742.07c-7.12-10-8.44-13.71-7.65-24.25l.79-12.66,11.08-.79c10-.79,11.34,0,15.29,7.12,2.11,4.48,5.8,8.17,7.91,8.17,6.06,0,11.86,11.08,11.86,22.94v11.34H791.91C776.62,753.94,776.36,753.68,767.92,742.07Z" transform="translate(-161.63 -412)"/>
    <path class="cls-4" d="M910,1063a22.39,22.39,0,0,0-5.27-13.19c-3.69-3.69-5.27-9.23-5.27-17.14V1021.3l21.62-13.19C933,1001,947,993.08,952,990.71c10-5.27,24-6.33,24-2.11,0,1.58,2.37,2.64,5,2.64,14,0,16.61,7.91,10.55,30.32-3.69,13.18-9.76,19.77-24.79,27.42-6.33,3.16-12.39,6.86-13.18,8.44-1.06,1.32-4.48,2.37-7.65,2.37-3.42,0-9.23,2.37-12.92,5.27s-10.28,5.28-14.76,5.28c-7.12,0-8.18-.79-8.18-7.38Z" transform="translate(-161.63 -412)"/>
    <path class="cls-4" d="M867.85,732.85c0-1.32-3.43-2.64-7.91-2.64-6.33,0-8.18-1.32-9.49-7.12a55.68,55.68,0,0,0-5.54-13.45c-2.11-3.69-3.43-11.07-2.9-18.45.79-11.6,1.32-12.39,8.7-13.19,4.48-.52,9-2.11,10.28-3.42a13.83,13.83,0,0,1,7.65-2.38c3.69,0,4.48-1.05,3.16-4.48-1.32-2.64-2.63-8.7-3.42-13.18-.53-4.75-2.64-8.7-4.22-8.7-1.85,0-6.33-1.58-10.29-3.17-9.49-4.48-9.75-16.61-.52-25.57,3.69-3.43,6.59-7.65,6.59-9.76a3.82,3.82,0,0,1,3.95-3.69,4.05,4.05,0,0,0,4-3.95c0-2.38,2.11-5,4.74-5.8,2.38-1.06,5.28-3.17,6.33-4.75,2.37-3.69,40.87-7.65,47.73-5,2.37.79,4.48,3.16,4.48,5.27,0,5.54,3.69,4.49,10.54-2.9,4.49-4.74,9-6.59,15.82-6.59h9.76l1.85,18.72c1.31,12.39,1,19.78-.8,21.62-6.06,6.07-2.63,8.44,11.08,7.65,10.28-.79,15,0,17.4,3.16,2.11,2.37,5.27,4.22,7.12,4.22,2.11,0,3.69,2.37,3.69,5.27s-1.58,5.28-3.43,5.28c-2.11,0-5.8,2.37-8.17,5-4.48,5-4.48,5.53.79,11.33,4.48,4.75,6.33,5.28,7.91,2.64,2.9-5,4.75-4.48,12.13,3.69l6.59,7.12,2.37-6.33c1.85-4.74,2.64-5,2.64-1.58.26,2.37,1.58,4.48,2.9,4.48,1.58,0,2.64,4,2.64,8.7,0,6.6-1.59,9.5-7.65,13.19-8.44,5-29.27,6.06-29.27,1.84,0-1.84-4.74-2.11-12.92-1-10.81,1.32-13.71.79-18.45-4-2.9-2.9-5.54-6.59-5.54-8.17,0-1.32-2.11-2.64-5-2.64-10.28,0-17.14-20-10.55-32.16,4.22-7.91.8-8.7-6.06-1.59S920.32,659,912.67,659c-5.8,0-5.54-1.85-5.54,37.7.27,36.65-1,38.76-22.67,38.76-9.23,0-16.61-1.05-16.61-2.63Z" transform="translate(-161.63 -412)"/>
    <path class="cls-5" d="M968,1102c0-15-.26-15.82-6.59-15.82-14,0-30.32-14.5-30.32-26.63,0-6.33,1-7.65,6.33-7.65,3.69,0,7.11-1.05,8.17-2.37.79-1.58,6.85-5.27,13.18-8.44,6.59-3.16,14.5-8.7,17.67-12.13,4.22-4.48,8.44-6.06,16.87-6.06,16.61,0,19.51,1.84,19.51,12.39,0,6.59,1.85,11.34,6.6,15.56,7.64,6.85,8.7,19.51,2.63,25.84q-3.95,3.94-4,19.77c0,19.51-2.38,21.36-30.06,21.36H968Z" transform="translate(-161.63 -412)"/>
    <path class="cls-5" d="M896.85,1012.07c0-18.46,4.48-36.65,9.23-36.65,1.85,0,5.8-2.37,9.23-5.27s9.49-5.28,13.71-5.28c5.27,0,7.38-1.32,7.38-4.74,0-2.64,1.58-7.91,3.43-11.87,2.37-5.54,5-7.12,11.86-7.12,4.49,0,8.44,1.06,8.44,2.37,0,1.06,9,2.91,20,3.7,11.07,1,21.09,2.37,22.41,3.42,1.32.79,2.37,5.8,2.37,11.08,0,8.17-1.58,10.81-9.22,15.82-5,3.16-9.76,5.8-10.55,5.8S981,986,977,989.39a50.42,50.42,0,0,1-8.44,6.07c-4.75.52-16.88,6.85-36.92,19.24-12.12,7.39-24.78,13.45-28.47,13.45C897.11,1028.15,896.85,1027.36,896.85,1012.07Z" transform="translate(-161.63 -412)"/>
    <path class="cls-5" d="M782.42,782.94c-14.24-13.44-14.76-14.23-14.76-28,0-13.44.52-14.23,6.32-14.23,3.69,0,7.39,1.31,8.18,2.63C783,745,788,746,793,746c7.12,0,9-1,9-5a11.6,11.6,0,0,0-5-8.7c-3.43-2.37-5.53-8.17-6.85-17.93-2.38-21.09-2.9-41.4-.79-43.5,1.05-1.06,7.11-2.64,14-3.17,9.76-1.32,11.86-.79,11.86,2.9,0,2.37,4.22,6.86,9.23,10,5,3.43,9.23,7.65,9.23,9.49,0,1.58,1.85,3.17,4,3.17s4-1.06,4-2.64c0-1.32,1.85-2.64,4-2.64s3.95,2.38,3.95,5c0,2.9,1.06,6.07,2.64,6.86,1.32.79,3.69,6.33,5.27,11.86,2.37,9.23,3.69,10.55,10.55,10.55,4.48,0,7.91,1.32,7.91,2.9,0,1.85,4,2.64,10.54,1.85L896.85,726v9.76c0,10.81-2.9,12.92-17.4,12.92-5,0-9,1.31-9,2.63,0,1.59-2.37,2.64-5.27,2.64-3.16,0-8.17,2.9-11.6,6.59s-7.38,6.59-9,6.59-3.7,4.49-4.75,9.76c-2.64,14-6.33,16.61-25.84,18.46l-16.87,1.58-14.77-14Z" transform="translate(-161.63 -412)"/>
    <path class="cls-5" d="M904.76,769.5c0-7.91-1.84-27.16-4-43s-3.17-31.64-2.38-35.07c2.11-7.65-.79-19.25-4.74-19.25-1.58,0-4.22,1.85-6.07,4.49-4,5.27-19.77,6.85-19.77,1.84,0-1.84-4-4.22-9-5.27-12.13-2.11-17.66-13.19-15.55-31.38,1.84-14.5,5.53-19.77,13.71-19.77,6.59,0,7.38,3.95,1.05,6.33-3.69,1.58-3.16,2.37,2.64,5.53,3.95,2.11,9,3.17,11.07,2.11,4-1.32,5,1.32,4.22,10.28-.79,7.65,7.38,20.57,12.92,20.57,4.48,0,11.87-8.17,9.49-10.81-.52-.53-1.58-8.7-2.63-18.19-1.32-14.24-1.06-16.35,1.84-13.19a36.89,36.89,0,0,0,8.44,6.86c3.95,2.11,5,5.27,4.48,11.34-.79,8.17-.79,8.17,6.59,5a53.93,53.93,0,0,0,12.66-8.7c4.48-4.49,7.65-5,23.47-4l18.19,1.32-7.12,5.27c-11.34,8.44-15,16.88-10.28,24.26a13.1,13.1,0,0,0,10.54,6.06c4.22,0,6.33,1.32,5.54,3.43-.79,1.58,1.05,5.27,3.69,7.91,4.48,4.22,4.75,4.22,5,0,0-2.64.79-3.43,1.32-1.58,1.58,3.43,16.35,1.84,21.62-2.37,2.37-2.11,3.16-1.32,3.16,3.42,0,6.07.53,6.33,25.32,6.6,14,.26,26.63,1.84,28.21,3.42s3.16,9,4,16.61c.79,12.4,0,15.3-7.12,25.32-7.64,10.28-9,11.07-20.83,11.07-10.54,0-13.44-1-19-7.91-3.69-4.22-8.17-7.91-10-7.91s-5.27-1.85-7.64-4c-5.28-5.27-8.71-2.63-8.71,6.33,0,15.82-3.16,24-9.49,25.58-3.43.79-6.33,2.64-6.33,4,0,3.43-14.76,10.29-22.67,10.29a21.28,21.28,0,0,0-12.13,4.48c-2.64,2.37-11.07,4.74-19.25,5.54l-14.5,1.05v-14Z" transform="translate(-161.63 -412)"/>
    <path class="cls-6" d="M1021.83,1108.57a91.87,91.87,0,0,1-10.28-16.35c-2.64-5.53-8.44-11.86-12.92-14.24-4.22-2.11-8.44-5.53-9-7.64-1-2.64.26-2.38,4.75.79s7.64,3.43,12.92,1.58c10.81-4.22,10.81-7.38-.27-18.46-9.75-9.49-10-10.54-6.06-14.5,3.43-3.69,3.69-4.74.79-6.59-2.11-1.32-4-.53-5.27,2.37-1.59,4-1.85,4-1.85-.26-.26-4.22-1.58-4.75-11.34-3.16-10.81,1.84-11.07,1.84-7.12-2.9a40.29,40.29,0,0,0,6.07-10.81c.79-3.43,2.37-8.71,3.16-11.61,1.06-3.69.53-5-1.32-3.95-1.58,1-2.9.79-2.9-.26,0-1.32-2.63-2.64-5.8-2.64-3.42-.26-6.32-1.85-6.85-3.43-.79-2.11-2.11-1.84-4.75.27-2.9,2.37-3.69,2.1-3.69-2.11,0-2.9,4-8.71,8.7-12.92,7.65-7.12,10-7.65,28.21-7.65,17.93,0,19.78.53,20.57,5.27.53,3.17,3.95,6.86,8.7,8.44,5.54,2.11,8.17,5.27,9.23,11.07,1.84,9.5,1.32,9.23,17.66,4.22,13.45-4,59.33-2.9,68.56,1.85,6.59,3.43,6.33,19.51-.53,21.36-2.9.52-5.54,4-6.06,7.38-1.32,9.23-16.09,16.08-33.49,15.29-19-.79-34.54,2.37-34.54,7.12,0,2.11-1.32,3.69-2.64,3.69-1.84,0-1.84,1.58,0,5.27,1.59,2.9,4.49,5.28,6.6,5.28,2.63,0,4,2.63,4,7.91,0,8.17,5.8,13.18,15.56,13.18,4.48,0,5.53,1.58,5.53,8.7,0,4.48-1.32,10.28-2.63,12.39-2.38,3.43-3.43,2.9-7.65-2.37-3.16-4.22-5.54-5.27-6.59-3.16-2.11,3.16-17.14,4-21.62.79-1.58-1.06-4.22-4.22-6.07-7.12-2.63-4.48-2.63-3.69-1.31,4.75,1.84,11.07-.53,12.12-8.44,3.16Z" transform="translate(-161.63 -412)"/>
    <path class="cls-6" d="M900,980.69c.79-16.61,1.84-19,9.49-26.63,7.12-7.12,11.33-8.7,23.2-9.75,14.24-1.06,22.41,1.84,21.88,8.43,0,1.59-.79,1.32-1.58-.52-.79-2.38-2.63-1.32-5,3.42-1.84,3.69-2.9,8.44-2.11,10.29,1.85,4.74-5.8,10.28-11.86,8.7-2.64-.53-6.59-.27-8.44,1-2.64,1.58-2.37,2.38,1.85,2.38a13.68,13.68,0,0,1,9.22,4.21c2.9,3.43,2.38,3.7-4.48,2.38-4.22-1.06-9-2.11-10.81-2.64s-4,0-4.74,1.58a3,3,0,0,1-4,1.06c-1.32-.79-2.9,2.11-3.95,6.59s-3.43,7.91-5.8,7.91c-3.43,0-4-3.17-2.9-18.46Z" transform="translate(-161.63 -412)"/>
    <path class="cls-6" d="M862.57,827.77c0-1.32-2.63-2.64-5.8-2.64a18.35,18.35,0,0,1-8.7-2.11c-4.22-3.16-9.23-13.18-9.23-19,0-2.9-1.84-5.28-4-5.28-2.9,0-4-2.9-3.69-11.07,0-11.6,3.95-37.71,4.74-31.64a3.41,3.41,0,0,0,3.17,3.16c1.32,0,1.84-1.05,1-2.63-.79-1.32.27-2.64,2.64-2.64,2.11,0,5.27-2.64,6.59-5.8,1.32-3.43,2.37-4.75,2.64-3.43,0,1.58,1.32.79,2.63-1.32,1.59-2.63,2.64-2.9,2.64-.52,0,1.58,1.06,3.16,2.64,3.16,1.32,0,1.84-1.85,1-4-1-2.63,0-4,2.9-4,4.22,0,4.49,1.85,3.17,15.82-1.06,9.76-.79,15.82.79,15.82s2.63,1.85,2.63,4a4.06,4.06,0,0,0,4,4c2.11,0,3.95,2.37,3.95,5,0,2.9,1.32,6.06,2.64,6.85,1.58.8,2.64,10.55,2.64,21.36V830.4H873.12C867.32,830.4,862.57,829.35,862.57,827.77Z" transform="translate(-161.63 -412)"/>
    <path class="cls-6" d="M747.62,801.93c-4-2.38-11.6-17.67-11.6-22.94,0-2.9-2.64-4-9.76-4-5.54,0-12.13-1.84-14.5-3.69-6.07-4.48-6.59-22.15-.79-24.26,2.37-1.05,3.95-5,3.95-9.22,0-6.07,1.06-7.65,6.07-7.65a20.93,20.93,0,0,0,10.81-4c3.16-2.38,11.07-4,20-4,14.23,0,15,.53,23.2,11.07,9,11.87,11.07,19.52,4.48,16.88-7.12-2.64-4.48,10.28,4,18.19,7.64,7.12,10.81,19.78,5.27,19.78-1.32,0-2.64,2.11-2.64,4.74,0,2.38-3.16,6.07-7.12,7.91C771.35,804.3,752.36,805.09,747.62,801.93Z" transform="translate(-161.63 -412)"/>
    <path class="cls-6" d="M1140.74,777.67c-4.48-2.9-13.18-5-20.3-5l-12.66-.26V762.11c0-6.06,2.11-12.65,4.75-16.08,7.12-8.7,2.37-22.68-8.44-24.78-9.75-2.11-14.76-6.07-14.76-12.4,0-2.9-1.85-5-4-5-2.9,0-3.95-3.16-3.95-11.86,0-9.23,1.31-13.18,6.32-17.4,6.07-5.28,6.33-6.07,2.38-11.87-4.48-7.12-2.9-19.51,2.63-19.51,1.85,0,5.81,1.85,8.71,4,2.63,2.1,8.7,4,13.44,4,4.48,0,9.23,1.32,10,2.9,1.06,1.58,3.69,2.11,5.8,1.06,6.86-2.38,14,6.32,14,17.4,0,15,12.12,24.25,18.19,13.71,2.11-3.69,2.64-2.64,2.64,5.8,0,5.8-.8,9-1.59,7.38-.52-1.84-4-3.43-7.38-3.43s-7.12-1.31-8.17-2.9c-.79-1.58-4.48-2.37-8.18-1.58-4.74.79-6.06.26-5-2.37.8-2.11-.52-6.07-2.9-9-5-5.53-11.33-7.12-11.33-2.37,0,1.32-1.06,2.11-2.38,1.06-2.63-1.32-16.08,11.33-16.08,15,0,4.49,6.33,5,8.7.8s2.9-4,5.54,4c1.58,4.75,5.53,10.28,8.7,12.39,5.27,3.69,6.33,3.43,12.13-2.9,7.12-7.38,15-9.23,15-2.9,0,2.11,2.37,5,5,6.59,7.12,3.69,8.17,3.43,6.32-1.84-1-2.9-.79-3.69,1.59-2.38,1.58,1.06,2.63,5,2.11,9-.8,5.8.79,7.65,9.22,11.86,6.33,3.17,10,6.86,10,10,0,2.9,1.85,5.8,4,6.6,4.48,1.84,5.53,9,1.05,9-3.69,0-8.7,5.27-11.07,11.6-1.58,3.69-3.43,4.48-8.7,3.16-7.38-1.84-16.88,4.22-16.88,10.82,0,4.74-5,4-14.5-1.85Z" transform="translate(-161.63 -412)"/>
    <path class="cls-6" d="M1164.47,777.41a4.49,4.49,0,0,1,.79-5.54c1.58-1.58,2.9-1.06,4,1.58C1171.06,778.2,1166.84,781.62,1164.47,777.41Z" transform="translate(-161.63 -412)"/>
    <path class="cls-6" d="M984.39,770.81c-5.28-3.69-5.8-6.06-5.54-25,.53-11.34,1.32-20.83,2.37-20.83.79,0,3.17-4.22,5.28-9.23,3.16-7.91,4.74-9.23,12.39-9.23,8.44,0,11.34,3.16,6.06,6.59-1.58,1.06-1.05,3.17,1.59,5.8,3.42,3.69,4.48,3.69,6.59.53,1.32-2.11,2.37-2.37,2.37-.79s3.43,6.59,7.91,11.34c5.54,6.32,9.23,8.43,13.18,7.38,4.22-1.06,5.28,0,5.28,5.54-.27,7.64-7.39,16.87-20.57,26.36-9.75,6.86-28.21,7.91-36.91,1.58Z" transform="translate(-161.63 -412)"/>
    <path class="cls-7" d="M902.12,929.8c0-24.52,1.06-34.8,4.22-40.86,2.11-4.75,5.28-8.44,6.59-8.44s2.38-2.9,2.38-6.33c0-5.27,1.58-6.33,12.13-7.91,23.46-3.16,32.95-2.11,34.54,3.69.79,2.9,3.42,5.28,6.06,5.28,3.69,0,4.75,3.16,6.06,15,.8,8.44,2.91,15.56,4.49,16.09,4.48,1.58,3.16,20-2.11,24.52-9.23,7.91-33.75,20.3-43.51,21.88-5.53,1.06-10.81,3.69-11.6,5.8s-5,3.7-10.28,3.7h-9V929.8Z" transform="translate(-161.63 -412)"/>
    <path class="cls-8" d="M1127.82,1036.59c-1-1.85-5-3.17-9-3.17s-9.23-1.84-11.6-3.69c-4.49-3.16-4.49-3.69,0-7.38a27.46,27.46,0,0,1,8.43-5.27c3.17-1.06,2.64-1.85-1.58-4.22-6.33-3.17-48.78-4.75-53.52-2.11-2.11,1.32-2.9-3.69-2.9-15.29v-17.4h9c5,0,10.81,1.84,13.18,4,3.43,3.69,4.22,2.9,6.07-7.12,3.16-15.29,10-17.66,34.54-11.86,10.28,2.37,21.09,4.48,24.26,4.48,6.32,0,12.92,6.59,13.18,12.65,0,1.85,1.85,5.28,3.95,7.39,5,5.27,5,22.14,0,29-2.1,2.64-3.95,7.12-3.95,9.76,0,5.53-7.12,9-11.07,5-3.17-3.17-10-1.06-14.24,4.21-2.11,2.9-3.43,3.17-4.75,1.06Z" transform="translate(-161.63 -412)"/>
    <path class="cls-8" d="M992.83,965.93c7.11-5,2.1-10.81-5.81-6.6-7.38,4-8.43,3.7-8.43-1.58,0-4-.53-4.22-2.64-.79-2.37,3.43-2.64,3.43-2.64,0-.26-3.16-.52-3.16-2.63.53-2.38,4-3.43,4-9.76.79-3.69-2.11-7.91-5.27-9-7.12-1.85-2.64-2.38-2.37-2.38,1.32,0,5-4,6.06-6.85,1.58-.79-1.58-5-2.37-9.23-1.32-14,2.64-8.17-4.74,11.87-15.55,10.81-5.54,19-11.34,18.45-12.4-.79-1,.53-2.1,2.64-2.1,6.33,0,7.91-5.28,2.64-9.23-2.91-1.85-4.22-4.49-2.91-5.54,1.06-1,0-3.95-2.37-6.59-2.63-2.9-3.16-5-1.32-6.33,1.59-.79,2.9-4,2.9-7.12,0-4-1.31-5-5.27-4s-5.27,0-5.27-4a7,7,0,0,0-5.28-6.59c-8.17-2.11-6.32-7.38,4-11.34,5-2.11,9.23-5,9.23-6.59,0-4.22,11.6-9.23,21.09-9.23,4.48,0,10.28-2.37,13.18-5.27,3.43-3.43,8.7-5.27,15.82-5.27,8.7,0,10.55.79,10.55,5.27,0,3.43,1.85,5.27,5.27,5.27s5.28,1.85,5.28,5c0,2.9,1.32,6.07,2.63,6.86,1.59.79,2.64,7.38,2.64,14.5,0,12.39-.53,12.92-9.23,16.08-12.39,4.48-11.6,7.65,2.11,7.65,17.93.26,20.57,3.95,19.78,26.63l-.79,19.51-15.82,9.76c-8.71,5.27-18.2,9.75-21.1,10-2.9,0-10,1.84-15.82,4C989.13,969.35,988.34,969.35,992.83,965.93Z" transform="translate(-161.63 -412)"/>
    <path class="cls-8" d="M1089.33,897.64c0-2.38-3.43-6.33-7.91-8.7-6.07-3.43-8.18-6.86-9.5-15.56-.79-6.33-1.05-12.92-.26-14.77,2.11-5.53,45.35-18.72,55.37-16.61,11.07,2.38,20.3,13.19,20.3,24.26,0,7.12-1.32,9.23-6.06,10.28-3.17,1.06-7.12,4.22-8.44,7.39a21.58,21.58,0,0,1-8.44,8.43c-3.42,1.32-6.06,4-6.06,5.8,0,2.38-4.48,3.43-14.5,3.43-11.34,0-14.5-.79-14.5-4Z" transform="translate(-161.63 -412)"/>
    <path class="cls-8" d="M921.37,825.39c-9.75-2.9-14-5.53-14-8.7,0-2.37-1.06-5.27-2.64-6.06-1.32-.79-2.64-4.48-2.64-7.65,0-5.8-.52-6.06-10.54-3.16Q873,804.56,871,791.12c-.53-2.9-2.63-5.54-4.74-5.54s-3.7-1.85-3.7-4.22c0-2.9-1.31-3.69-4.21-2.64-3.43,1.32-4,.27-3.17-6.32q1.18-7.92-2.37-7.91c-4.75,0-4.48-5,.53-6.86,3.95-1.58,7.91-10.81,7.12-15.82-.8-3.43,10.28-7.12,12.65-4.22,2.37,3.17,10.55,3.69,10.55.53,0-1.58,1.32-2.11,2.63-1.32,1.59.79,2.64,4.48,2.64,8.18,0,3.95,1.58,6.32,4,6.32,4.48,0,5.27-4.22,1.31-6.59-4.21-2.64-3.16-14.24,2.11-22.94,2.9-5.53,3.43-8.43,1.59-9.23-2.11-.79-2.11-5-.53-14.5,1.58-8.43,1.58-17.4,0-23.46-1.32-5.28-1.58-11.08-.79-12.66,1-1.58,1-9.23-.27-16.87-3.16-20.57-4-39-1.58-36.65,1.32,1.31,2.64,6.06,3.43,10.54a51.27,51.27,0,0,0,5,16.35c2.64,5.54,2.9,7.91.79,7.91-1.85,0-1.58,1.06.79,2.64,2.9,1.84,2.9,2.63.53,2.63-2.11,0-2.64,1.32-1.32,3.43,1,1.58,1.85,14.24,2.11,27.69,0,18.72.79,25,3.95,26.89,2.64,1.85,2.9,2.64.8,2.64a3.55,3.55,0,0,0-3.43,3.69c0,2.37,1.84,3.16,5.27,2.37,4-1,5.27,0,5.27,4.22,0,3.16-1.84,6.33-4,7.12-5,2.11-5.27,14.24-.26,14.24,2.9,0,3.16,2.11,1.58,9.22-1.58,7.39-1.32,9.23,1.84,9.23,2.11,0,2.9-1.05,2.11-2.63-.79-1.32.27-2.64,2.38-2.64,6.06,0,5,4.22-2.38,10-9,7.12-8.7,12.13.79,9.75a29.93,29.93,0,0,0,11.6-5.8c2.64-2.37,8.71-4.48,13.19-4.74,4.74-.53,10.54-1.06,12.65-1.58,5-1.32,9.5,40.6,5.28,49.83-1.32,3.43-2.64,8.17-2.64,10.81,0,9-16.35,10.28-38.76,3.16Z" transform="translate(-161.63 -412)"/>
    <path class="cls-8" d="M1057.69,765c0-1-4.75-1.58-10.55-1l-10.55,1V752.89c0-9.76,1.85-14.51,9.23-24.26,10.28-13.45,10.28-13.71,6.59-23.47-2.37-6.06-3.42-6.59-6.59-3.95s-4.74,2.63-7.91,0c-2.9-2.38-4-2.38-4-.27,0,1.85-1.06,2.64-2.38,1.59a3.19,3.19,0,0,0-4.21,1.31c-1.06,1.59-2.9,2.11-4.22,1.06-1.59-.79-.79-3.17,2.11-5.28,4.21-3.16,4-3.42-4.49-3.69-7.12,0-8.43.79-5.27,2.9,3.16,2.38,3.43,3.17.26,4.22-1.84.79-5.8,4.22-9,7.65-2.9,3.43-6.06,5.8-6.86,5.27-1.05-.79-2.9,1.85-4.74,5.28-1.58,3.42-1.85,6.32-.53,6.32a2.6,2.6,0,0,1,2.37,2.64c0,1.32-.79,2.37-1.84,2.37-6.59-1.05-9,.79-7.38,5.54,1.31,4.22.52,5.27-4,5.27-4.22,0-5.27-1-4-5,.79-2.9.26-5.8-1.06-6.85-2.9-1.58-.26-7.65,8.44-19.51,2.37-3.43,4.48-9,4.48-12.4s1.32-6.32,2.64-6.32c1.58,0,2.63-2.38,2.63-5,0-6.07,4-9,12.4-9.49,7.38-.27,7.91,4,.79,5.8-5.8,1.58-7.39,6.06-1.85,6.06,5,0,18.46-9.76,15-11.07-2.11-.53-1.85-2.9.79-7.91,2.37-4.75,4.48-6.33,7.12-4.75a9.51,9.51,0,0,0,7.12.79c1.84-.79,4.22.53,5,2.9,2.37,6.33,8.7,5,15.82-3.43,3.43-4.21,9.49-8.43,13.18-9.22,5.54-1.59,6.59-3.17,5.8-7.91a14.83,14.83,0,0,1,2.38-11.08c3.16-4.48,3.42-4.48,3.42.79,0,3.17,1.32,6.59,2.64,7.39,1.58.79,2.64.26,2.64-1.06,0-1.58,1.84-2.9,4.22-2.9,2.63,0,3.69,1.58,2.9,3.69s.79,6.86,3.69,10.28c7.12,9.23,6.32,15.56-2.9,23.73-8.18,7.39-11.08,16.88-4.22,14.24,4-1.58,7.91,4.75,5.54,8.7-.8,1.06.26,3.43,2.37,5,2.63,2.11,2.9,6.07,1.32,15.3-2.9,19-6.6,26.36-13.71,28.21a10.79,10.79,0,0,0-8.18,8.17c-1.32,5.54-3.16,6.59-12.13,6.59-5.8,0-10.54-.79-10.54-2.11Z" transform="translate(-161.63 -412)"/>
    <path class="cls-8" d="M874.44,730.21c-2.11-3.43,3.95-3.43,9.23,0,3.16,2.11,2.9,2.64-1.85,2.64C878.66,732.85,875.23,731.79,874.44,730.21Z" transform="translate(-161.63 -412)"/>
    <path class="cls-9" d="M1069.29,1118.32c-1.58-1-2.9-5.8-2.64-10.54.27-6.86-.79-8.44-5-8.44-2.9,0-9.23-2.37-14-5.27s-10.29-5.28-12.39-5.28c-1.85,0-4.49-1.31-5.28-2.9-1.32-1.84,1.32-2.11,7.65-1.05,7.64,1.58,9.49,1.05,9.49-2.37,0-2.38-1.58-3.43-3.69-2.64q-3.56,1.58-7.12-7.91c-1.85-5.27-5-9.49-7.12-9.49-1.84,0-2.64-1.32-1.58-2.9.79-1.58,0-4-1.85-5.28-2.9-1.84-2.37-2.37,1.59-2.63a52.36,52.36,0,0,1,9.22,0c3.17.26,2.9-.27-.52-3.17-4.75-3.69-6.6-12.39-2.64-12.39,1,0,4.48,1.85,7.38,3.69,4.75,3.43,7.12,3.43,18.46,0,7.12-2.11,14.5-2.9,16.87-2.11,7.12,3.17,14,2.9,21.36-.79,8.44-4.22,12.13-8.7,7.12-8.7-2.37,0-2.11-1.32,1.05-4.22,3.17-3.16,5.28-3.69,9.5-1.32,2.9,1.59,7.38,2.11,9.49,1.32,6.59-2.63,12.65,3.69,9.49,9.76-1.58,2.64-2.37,8.7-2.11,13.45l.79,8.7h-14.76c-21.89,0-31.38,10.28-23.47,25.31,3.43,6.06,6.33,6.33,11.6.79,4-3.69,4.22-3.43,4.22,3.69,0,10-2.37,16.35-5.8,16.35-4,0-9.76,8.43-10,14,0,3.43-2.37,4.48-11.07,4.48-6.33,0-12.66-1-14.24-2.11Z" transform="translate(-161.63 -412)"/>
    <path class="cls-9" d="M895.8,1033.16a164.6,164.6,0,0,1-1.59-22.41c0-12.92.53-14.24,6.07-14.24,5.27,0,5.8,1.06,5,11.87-1.06,10.28-.53,11.86,4.22,11.86a12.68,12.68,0,0,0,8.43-4c1.85-2.11,4.49-4,5.8-4,2.64,0,29.8-17.14,35.34-22.41,8.43-7.65,16.34-13.45,22.14-16.61,13.45-7.12,16.88-10.55,13.71-14.5-2.63-2.9-1.31-3.69,6.33-4,5.28-.26,11.34-1.84,13.19-3.43,6.32-5.27,25-.52,33.48,8.44,7.65,8.7,9.76,25,4,30.85-2.38,2.37-2.11,3.16,1.31,3.16s4.49,2.38,4.49,9c0,7.91-1.06,9.23-11.08,12.92-16.61,5.8-25.31,7.38-27.15,4.75-.8-1.32,1-3.43,3.95-4.22,4.22-1.32,4.75-2.64,2.64-5.28s-1.85-3.69.52-4.74c1.85-.79,1.06-1.58-1.84-1.58-4.48-.27-4.48-.8-1.32-2.91s2.37-3.16-4.48-5.8c-5-1.84-8.7-5.27-9.23-8.43-.53-2.9-2.64-5.8-4.75-6.33-3.42-1.32-3.42-.79-.26,2.9,4.48,5.54,1.85,5.8-6.33.26-5.53-3.69-7.91-3.69-14.5-1-4.48,1.84-7.91,4.22-7.91,5.54,0,1-4.48,4.21-9.76,6.59-5.53,2.63-21.09,11.07-34.27,19.24-23.47,14-29.8,21.36-21.09,24.79,1.58.79-.53,1.58-5,1.58C898.7,1041.33,897.38,1040.28,895.8,1033.16Z" transform="translate(-161.63 -412)"/>
    <path class="cls-9" d="M725.47,972.25c-5-1.31-10.28-3.42-11.34-4.48-3.16-3.16,2.64-15.55,10.28-22.67l7.12-6.59h-9.75c-6.07,0-11.87-1.85-15.3-5.28l-5.8-5.27H721c18.45,0,20.3-.53,20.3-5,0-10.81,20.3-16.88,39-11.87,5.27,1.59,5.8,3.17,5.8,21.1,0,16.34-.79,20-5.8,24.78-3.16,2.9-7.65,5.28-9.75,5.28-5.28.26-13.45,6.32-13.45,10.28,0,3.43-18.46,3.43-31.64-.27Z" transform="translate(-161.63 -412)"/>
    <path class="cls-9" d="M1042.66,942.72c-5.54-3.16-5.54-3.42-1.32-7.91,3.69-3.69,4-4.74.79-6.59a5.76,5.76,0,0,1-2.11-6.59c1.06-2.9.26-4.22-2.9-4.22-3.43-.26-2.9-1,1.85-3.69l6.32-3.43-8.43-3.69c-11.6-5-10-12.65,4.22-19.51,6.06-2.9,11.6-7.38,12.12-9.75,1.59-5.81-4.74-6.33-7.11-.8-.8,2.64-5,4-11.34,4-6.59,0-8.7-.79-6.59-2.37,4.21-2.64,2.9-12.4-1.32-11.61-1.58.27-3.69-1-4.48-3.16s-.27-4,1-4a2.5,2.5,0,0,0,2.64-2.64c0-1.32-2.38-2.64-5.28-2.64-3.69,0-5.27-1.84-5.27-5.53,0-4-1.32-5-4-4-2.38.79-4,0-4-2.37q0-4,8.7-4c14.5,0,19.78-2.63,21.62-10.54.79-4.22,3.43-9,5.54-10.81,5-4.22,27.42-1.59,30.32,3.69,1.32,2.11,5.8,5.27,10.28,7.12,7.39,3.16,7.91,4.21,7.91,17.13,0,11.87-.79,14-6.32,16.62-8.44,3.69-6.33,13.71,3.95,19.51,4.22,2.63,7.65,6.06,7.65,8.17,0,2.37,2.63,4,6.32,4,4.49,0,6.07-1.32,5-3.7-.79-2.37.53-3.69,3.7-3.69,5.27,0,14-7.64,14-12.13,0-1.58,3.16-3.69,6.86-5.27L1140,866l-6.33-7.39c-3.69-4-9-7.64-12.13-7.91-3.69-.26-5.8-2.1-5.8-5,0-7.91,21.36-6.6,31.38,2.1,4.48,3.7,8.17,8.44,8.17,10.55a3.83,3.83,0,0,0,4,3.69c2.11,0,6.59,2.9,10,6.33,3.69,3.69,11.33,7.91,17.4,9.76,12.39,3.69,12.92,5,5.27,9.75-3.69,2.37-10,3.17-19.25,1.85l-13.44-1.58,9.23,4.74c7.64,4,8.17,4.75,4,5.54-8.17,1.58-11.07,5.27-12.92,15.29-2.64,12.66-9.23,14.77-49.83,15.56-18.72.52-34.81,1.84-36.12,2.9a20.77,20.77,0,0,0-3.17,7.64c-.52,4.22-3.16,5.28-11.34,5.8-5.8.27-13.18-1-16.34-2.9Z" transform="translate(-161.63 -412)"/>
    <path class="cls-9" d="M902.12,878.13c0-24.52.8-31.91,4-34.54,2.11-1.85,3.95-4.75,3.95-6.86,0-1.84,5-4.75,11.34-6.59,21.36-5.8,31.11-11.07,29.8-16.61-.79-2.64.52-6.59,2.63-8.7s2.9-5.28,1.85-6.86c-1.06-1.84-2.11-9-2.11-16.35-.26-11.6-.79-13.18-6.59-14.5-4.75-1-5.54-2.11-3.17-3.69,1.85-1,4.22-1.32,5-.53,1.85,1.85,16.61-5.8,16.61-8.7,0-1.31,2.9-3.16,6.33-4,4-1.06,6.86-3.69,7.38-7.65.53-3.16,2.64-5.8,4.75-5.8,2.9,0,3.69,2.64,3.16,11.08-.79,9,0,11.6,5.28,15,6.33,4,11.6,4.22,17.4.8,2.11-1.59,3.16,0,3.16,5.8s-1.84,9.22-6.59,12.39c-3.69,2.37-6.59,6.33-6.59,9,0,5-17.93,22.15-28.21,27.16-9.49,4.22-7.12,7.12,5.54,7.12,20.56,0,27.94,2.64,27.94,9.49,0,12.13-6.32,30.06-10.54,30.06-4.49,0-11.08-3.69-10.81-6.33.26-2.37-.53-2.64-7.12-.53-3.17,1.06-5.28,2.9-4.48,4.22,2.37,3.69-14.77,10-32.44,11.87-17.13,1.84-20.56,6.06-8.17,9.49l6.33,1.84-6.07.27c-7.91.26-16.87,5-15,7.91.52,1.32-.53,3.69-2.64,5.54s-4,5-4,6.85a3.82,3.82,0,0,1-3.95,3.69c-3.16,0-4-5.27-4-31.37Z" transform="translate(-161.63 -412)"/>
    <path class="cls-9" d="M776.36,850.44c-1.32-2.37-10.81-4-29.53-5-26.9-1.58-27.43-1.84-36.39-11.07-5-5-10-9.23-11.34-9.23-1.58,0-2.63-4.22-2.63-9.23,0-5.27,1.31-9.23,2.9-9.23,1.84,0,4.48-1.84,6.06-4.22,2.64-3.42,4.22-3.16,12.66,2.38,10.81,7.64,23.2,6.85,23.2-1.06,0-2.63,1.32-7.91,2.64-11.86l2.9-7.12,5.27,5.54c6.06,6.59,9.23,7.11,19,2.63,5-2.37,6.59-4.74,5.54-7.91s0-4.74,2.9-4.74c3.69,0,3.69-.53,0-6.33-7.38-11.08.26-10,10.55,1.58,10,10.81,11.33,11.34,31.11,10,2.37-.26,4-1.32,3.16-2.9-1.05-1.32,0-2.37,1.85-2.37,2.11,0,3.69-2.11,3.95-4.49.53-6.85,5.54-23.73,5.8-19.77.27,1.58,2.11,3.16,4.49,3.16,2.9,0,3.69,1.32,2.63,4.22-1,2.64.27,5.8,2.9,7.91,4.22,3.17,4.22,3.43.53,3.69-4.48,0-7.65,5-7.65,12.13,0,2.9,1.59,3.43,5.54,2.37,4-1.31,5-1,4,1.06-1.06,1.58-.53,2.9,1.32,2.9,2.37,0,2.37,1-.27,4-3.69,4.49-1.32,9.23,4.75,9.23,4,0,4,.53.52,2.64-3.42,2.37-3.42,2.9,0,5.27a22.43,22.43,0,0,0,10,2.64c3.17,0,5.8,1.32,5.8,2.64a2.43,2.43,0,0,0,2.38,2.63c1,0,2.11-5.27,2.11-11.86s-1.06-12.66-2.11-13.45c-5-2.9-2.11-6.85,4.22-5.8,3.69.79,7.38.26,8.17-1a3.18,3.18,0,0,1,4-.8c4,2.64,5.81-6.06,2.91-14.5-1.59-4.48-1.85-7.91-.53-7.91s1.84-1.84,1-4c-1.84-4.75-11.86-5.28-16.34-.79-2.38,2.37-3.17,2.37-3.17.26a5.92,5.92,0,0,1,2.64-4.75c1.32-.79,1.84-3.16,1-5.27-1.58-4.22,7.91-17.93,10.55-15.29.79.79,1.58.26,1.58-1.32,0-1.84-2.37-3.16-5.27-3.16s-9-2.38-13.71-5.28l-8.7-5.27h7.38c4,0,7.12,1.32,7.12,2.64,0,4.48,16.35,2.9,20-1.85,3.16-4.22,3.42-4,3.69,3.43,0,4.48.79,9,2.11,10,5.27,5.54,7.12,33,4.22,62.22-1.85,16.61-4,32.43-5,34.81-2.11,5.27-35.07,10-38,5.53-.79-1.58-5.54-3.69-10.28-4.74s-9.5-3.43-10.29-5.54a6,6,0,0,0-5-3.69,6.3,6.3,0,0,1-5.27-4c-2.9-7.38-5.8-3.95-7.65,8.44-2.63,18.72-9.49,24.52-29.53,24.52-11.07,0-17.14-1-18.45-3.69Z" transform="translate(-161.63 -412)"/>
    <path class="cls-10" d="M1046.61,973.57c-2.37-.52-6.06-4-8.43-7.38s-6.86-6.59-10-7.12c-11.08-1.58-8.7-10.55,4.74-18.46,13.19-8.17,16.88-9,21.36-4.48,4.22,4.22,9.75.27,6.06-4.22-2.37-2.9-.79-4.74,7.39-9,9.49-4.75,12.12-5,27.15-2.37,20.31,3.69,26.11,7.91,26.11,19.77,0,8.17-.53,8.7-8.44,8.7-19.25,0-36.39,10.28-36.39,21.62,0,4-2.11,4.75-12.39,4.48-7.12-.26-14.76-.79-17.14-1.58Z" transform="translate(-161.63 -412)"/>
    <path class="cls-10" d="M1005,899.22c0-8.7,4.75-16.08,10.29-16.08,2.63,0,10-3.43,16.34-7.91a110.27,110.27,0,0,1,26.63-11.61c20.31-5.27,25.84-9.22,25.32-17.92-.53-5-2.9-8.18-9.23-11.08-4.75-2.37-8.7-5.27-8.7-6.59,0-3.69-11.34-5.54-14.77-2.64-1.84,1.59-3.95,6.07-5,9.76-2.11,9.75-12.92,14.5-24.78,11.07-11.34-3.16-18.46.53-20.57,10.81-1.05,5.28-2.9,7.65-6.33,7.65-5.53,0-6.85-4.22-1.58-6.07,4.22-1.31-2.64-15-7.91-15-1.84,0-3.43-1.06-3.43-2.64,0-1.32,3.7-2.64,8.44-2.64,10.28,0,9-1.58-2.9-3.43-6.59-1-10-.26-12.39,2.91-3.17,4.21-3.69,4-8.7-1.32-5.54-5.8-7.91-24.52-3.43-24.52,1.32,0,10.55-7.65,20.57-17.14,14.76-13.71,19.77-17.14,26.89-17.14,7.91,0,8.44-.53,8.44-9.23,0-5,1.32-9.23,2.63-9.23,1.59,0,2.64-1.58,2.64-3.42,0-5.54,11.6-15,17.93-15,5,0,5.54,1,4,8.7-1.31,7.12-1,7.91,2.11,5.53,5.28-4.48,18.2-4,18.2.53,0,2.11,1.32,3.69,2.9,3.69,1.32,0,1.84-1.05,1-2.63-.79-1.32-.26-2.64,1.32-2.64s2.11-1.32,1.32-2.64c-1.06-1.58,2.63-4.48,7.64-6.59,5.28-2.37,9.23-5,9-6.06s1-5.28,2.9-9.49c1.58-4.22,2.37-11.08,1.58-15.3-1.32-5.53-.79-7.38,2.37-7.38,2.11,0,4.75,1.32,5.54,2.9,1.06,1.58,3.43,2.11,5.54,1.32s3.69-.53,3.69.79,3.69,2.9,8.44,4c6.06,1.32,7.64,2.38,5.53,4.49s-2.11,4.74-.26,9.23c3.16,6.85,7.38,7.91,12.13,3.16,1.84-1.85,3.16-2.11,3.16-.53,0,1.32-5.27,7.91-11.86,14.77-13.45,14.24-14.24,17.14-5.8,18.72,4,.79,2.9,1.32-3.43,1.58-8.7.26-19.25,7.38-45.35,30.58-2.64,2.11-5.8,4-7.12,4s-2.9,2.11-3.95,4.75c-.8,2.37-2.38,6.32-3.17,8.43-1.32,3.17-1,3.43,1.85.79,4.74-4.48,17.93-4.21,27.15.53a39.89,39.89,0,0,0,15.3,4c4.22,0,12.92,1.31,19.51,2.9l11.6,2.9v12.39c0,11.6-.53,12.13-7.12,12.39-4.22,0-16.08,2.64-26.89,6.07-16.35,5.27-19.78,7.38-22.41,13.71-2.91,7.91-6.86,10.28-6.86,4.48,0-4-10.28,8.44-10.55,12.65,0,1.32-4.22,4.49-9.22,6.33-5.28,2.11-10.82,5.28-12.4,7.12-3.42,4.22-25.84,4.75-25.84.53,0-2.11-1.31-2.11-4,.26-3.43,2.64-4,2.38-4-2.37Z" transform="translate(-161.63 -412)"/>
    <path class="cls-10" d="M731.53,802.19c-7.64-1.05-8.7-2.11-8.7-9,0-5.54-1.32-7.65-4.74-7.65-2.64,0-7.65-2.9-11.08-6.59-6.59-7.12-17.14-7.91-23.46-1.85-5.8,5.8-9.5,2.11-10.29-10.81l-.79-12.39h9c4.74,0,11.07-1.85,14-4,5.8-4.21,19-5,24.79-1.31,3.42,2.11,3.16,2.9-1.32,6.32-5.28,4-5.28,4,0,7.91,3.16,2.38,8.43,3.43,13.44,2.64,7.91-1.32,17.14,4.75,13.45,8.44-.79,1,.53,6.06,3.17,11.34,2.37,5.27,4.21,11.6,3.42,14.23-.79,4.49-3.16,4.75-20.83,2.64Z" transform="translate(-161.63 -412)"/>
    <path class="cls-10" d="M945.89,649c-1.58-4.48-3.95-5.8-10.28-5.8s-7.38-.79-5-3.16a13.27,13.27,0,0,0,3.16-8.44c0-3.43.8-4.48,2.11-2.64,2.9,4.48,16.88,4,15.3-.52-.79-2.11-.27-3.7,1.05-3.7,4.48,0,9.23-14.5,8.44-25.84-.53-8.7-1.85-11.07-4.75-10-2.63,1.05-3.69-.53-3.69-5,0-8.44,10.28-11.34,24.79-6.86a158.52,158.52,0,0,0,25.31,5c13.44,1.58,14.5,2.37,15.29,9.23.53,4.74-.26,7.12-2.9,7.12-4.48,0-7.38,5.8-5,9.75,1,1.59,4.22,3.43,7.12,4.49,6.33,1.84,12.65,11.33,10.55,15a3.38,3.38,0,0,1-4.22,1.06c-1.32-1.06-2.38,1.32-2.38,4.74,0,3.7-1.84,7.91-3.95,9.76-5,4.22-21.36,1.85-28-4.22-4.75-4.22-6.06-4.22-21.09.53q-16.21,5.15-18.2,10.28C947.74,654.8,947.74,654.8,945.89,649Z" transform="translate(-161.63 -412)"/>
    <path class="cls-11" d="M749.2,1056.89a30.07,30.07,0,0,0-2.9-11.07c-2.37-4.22-2.37-5.8,0-6.59,4.74-1.59,3.43-8.44-1.85-8.44-6.59,0-11.07-5-11.07-12.39,0-4.22,1.58-6.07,4.74-6.07,10.55,0,14.51-6.33,14-21.88l-.26-15h36.91v9.23c0,10.81,1.58,11.33,10.54,2.9,7.65-6.86,12.13-13.19,16.35-23.21,1.58-3.69,6.59-8.7,11.08-11.07,19.77-10.28,26.36-14.76,21.62-14.76-6.33,0-20-8.18-20-12.4,0-1.58-5.28-4-11.87-5-6.85-.79-11.86-3.16-11.86-5s-3.43-4-7.91-4.74c-4.22-1.06-10-4.22-12.39-7.12-5.54-6.33-10.81-31.9-11.08-51.94-.26-12.13.53-14,4.75-14a8,8,0,0,1,6.59,4c2.37,6.33,17.93,5,24-1.85,2.9-3.43,5-7.12,4.49-8.17-.27-1.06.52-4.48,2.1-7.12,1.59-2.9,1.85-5.27.53-5.27s-2.37-3.43-2.37-7.91c0-6.86,1.05-7.91,7.38-7.91,4,0,10.81,2.9,15,6.59,4.48,3.69,9,6.59,10.55,6.59,1.32,0,3.42,1.85,4.22,4.22.79,2.11,2.63,3.43,3.95,2.37a3.21,3.21,0,0,1,4.22,1.32c.79,1.32,4.48,2.64,8.17,2.64,4.22,0,6.07,1.05,4.75,2.9-1.06,2.11.26,2.37,4.48.79,3.43-1.06,8.44-1.85,10.81-1.58,2.9,0,5.28-2.38,6.33-6.33.79-3.43,3.16-6.33,5-6.33,6.85,0,8.7,75.67,3.69,155.56-3.69,61.7-2.64,58-16.87,58-6.6,0-14-1.32-16.61-2.9-5-3.17-19,.79-19,5.53,0,1.32-2.37,2.64-5.27,2.64s-5.28,1.32-5.28,2.64c0,1.58-4.21,2.63-9.49,2.63-7.12,0-9.75-1.31-10.81-5.27-.79-2.9-3.16-5.27-5-5.27a3.83,3.83,0,0,1-3.69-4c0-4.22-11.86-5.27-22.41-2.37-5,1.32-17.14,23.2-17.14,30.85,0,2.11-3.69,4.48-8.17,5.54-12.13,2.37-12.92,2.11-12.92-4Z" transform="translate(-161.63 -412)"/>
    <path class="cls-12" d="M928.49,1115.16c0-7.65-.26-7.91-12.92-7.91-14.76,0-16.08-1.84-16.08-20,0-8.7,1-12.13,4.74-13.44,7.12-2.9,11.08-7.65,11.34-14.51.26-4.48.79-4.74,1.58-1.31,1.06,4.21,1.59,4.21,7.91-.8,7.91-6.06,14-6.85,14-1.58,0,2.11,3.16,7.39,6.85,11.87,4.75,5.8,6.59,10.54,5.8,15.55-.52,4.22.53,9,2.38,10.81,4.22,3.7,4.48,17.14.79,24.26-2.11,3.69-5.54,5-14.5,5-11.34,0-11.87-.26-11.87-7.91Z" transform="translate(-161.63 -412)"/>
    <path class="cls-12" d="M1012.86,1020.77c0-1.58,5.54-3.69,12.66-4.75,16.87-2.37,24.26-5.53,24.26-10,0-2.11-3.43-4.48-7.91-5.53-5-1.06-7.91-3.43-7.91-6.33a12.33,12.33,0,0,0-3.17-7.65c-2.37-2.37-2.37-3.16-.26-3.16a6.24,6.24,0,0,1,4.75,2.64c2.63,4.21,5.53,3.16,9-3.43,2.9-5.54,2.64-7.12-4.22-14.5a32.41,32.41,0,0,0-17.14-9.76c-12.13-2.37-12.65-5-2.11-10.55,9.76-5,10-5,8.7,2.11-1,5.28.8,6.59,16.88,12.13,9.75,3.17,20,7.12,22.41,8.44s9.49,3.16,15.82,4c11.87,1.85,17.14,6.07,11.87,9.5-1.85,1-3.43,3.16-3.43,4.74-.27,1.32-.53,3.69-.79,4.75-.27,2.63-18.72.53-18.72-2.11,0-1.06-1.85-2.64-4-3.69-3.16-1.06-4,.79-4,7.64,0,5,.79,9,2.11,9,1-.27,12.92-.27,26.36,0,16.09.26,24,1.32,22.94,2.9s-12.13,2.64-27.16,2.37c-20-.26-28.74.79-39.81,5.27-17.66,6.6-37.18,9.76-37.18,6.07Z" transform="translate(-161.63 -412)"/>
    <path class="cls-12" d="M917.94,954.85c0-1.32,10.55-8.17,23.47-15.29s22.94-13.71,22.41-14.77c-.79-1.31.53-2.1,2.9-2.1,2.11,0,5.54-2.9,7.12-6.6s5.8-7.38,9.23-8.17c3.43-1,9-5,12.39-9.23,3.69-4.22,7.65-7.64,9.23-7.64s2.9-1.85,2.9-4,2.37-4,5.54-4c10.28,0,26.1-11.34,26.1-19,0-6.59,5-8.7,8.7-3.43,2.9,3.7,5,4,15,1.32,6.59-1.58,17.14-3.95,23.47-5.53,6.32-1.32,12.92-3.43,14.5-4.75a6,6,0,0,1,6.59-.53c2.37,1.58-2.64,4.22-14.5,8.18-26.1,8.17-74.62,32.16-84.9,41.65-5,4.75-7.91,9.5-6.86,11.87,1.06,2.9-2.63,5-14,8.44-8.44,2.63-17.67,6.85-20.57,9.23A67.4,67.4,0,0,1,953,938.51c-4.74,1.84-8.7,4.21-8.7,5.53s-1.32,2.38-3.16,2.38c-1.58,0-5,1.58-7.12,3.69-5.54,4.74-16.09,7.91-16.09,4.74Z" transform="translate(-161.63 -412)"/>
    <path class="cls-12" d="M1171.59,883.14c-6.06-2.64-11.86-6.86-12.66-9.23-.79-2.11-4.48-4-7.91-4-4.21,0-5.8-1.05-4.74-3.69,1.84-5-14.5-18.19-20.57-16.61-5.8,1.58-9-2.37-3.43-4.48,2.11-.79,4-4,4-7.12,0-4-1.32-5-4-4-2.1.8-4,.27-4-1.31s-1.32-1.85-2.64-1.06c-1.58,1.06-4.48.26-6.59-1.32-2.11-1.84-7.12-2.63-11.07-1.84-4.22.79-10.81-.79-16.35-3.69-6.59-3.43-10-4.22-12.66-2.11-1.84,1.58-6.32,2.37-9.75,1.31-7.12-1.84-10.81,1.59-13.45,12.4-1,3.95-2.9,7.12-4.22,7.12-2.9,0-3.16-8.7-.26-11.87a72.4,72.4,0,0,0,5.54-13.18c5.27-16.35,9.22-25,11.33-25,1.32,0,4.22-1.85,6.86-4,18.46-16.61,39.81-32.69,44.82-34,4.75-1.58,5.8-1,5.8,3.43s1.59,5.54,9,5.54c5,0,10-1.06,10.81-2.64a6.15,6.15,0,0,1,4.48-2.64c1.58,0,2.11.79,1.32,1.85-3.17,2.9,3.43,8.17,8.7,6.85,4.22-1,4.75,0,4.22,9.76-.79,9.76-.27,10.81,4.74,10,4-.53,5.54-2.9,5.8-7.38.53-11.08,1.06-12.13,4-7.12,1.58,2.37,1.85,6.85,1,9.75-1,2.9-.52,5.28,1.06,5.28s2.9,2.11,2.9,4.74c0,3.43.53,3.69,2.37,1.06,2.9-4.49,9,1.32,16.09,15.55,4.21,7.91,4.74,11.34,2.37,17.14-2.11,6.07-1.58,8.7,2.9,14.5,6.33,9,6.59,10.29,1.32,10.29A6.81,6.81,0,0,1,1193,847c-1.58-4-1.85-4-3.69.79-3.7,9.23-2.64,16.35,2.9,18.2,3.95,1.32,5.27,4,5.27,10.54C1197.43,889.46,1190.05,891.57,1171.59,883.14Z" transform="translate(-161.63 -412)"/>
    <path class="cls-12" d="M901.07,870.48c-1.85-5.54-1.58-39.81.26-53.52.79-7.65,2.38-10,7.65-11.08,5-.79,6.33,0,6.33,4,0,2.9,1.32,4.74,3.43,3.95,1.58-.53,2.9-3.16,2.9-5.54-.53-5.27.79-5.27,5.53-.52,2.9,2.63,2.9,4.22.53,6.85-2.64,2.64-2.11,3.17,1.32,1.85,2.37-.79,4.74-.27,5.27,1.32,2.11,5.8,14.77,2.37,30.32-8.18,21.1-14.5,27.16-21.35,27.95-31.37.53-7.65,4.48-12.4,4.48-5.54,0,1.58,5-1.32,11.34-6.59,6.07-5.54,12.39-10.81,13.71-11.87,5.28-4.48,26.37-28.21,30.85-34.54,3.16-4.74,4.48-5.53,4.48-2.37.27,2.37-1.84,7.12-4.74,10.55-5,6.59-5.54,7.64-5.54,14.23a6.84,6.84,0,0,1-4.48,5.81c-6.07,2.37-11.08,9-11.34,14.76,0,2.37-1.58,4.48-3.16,4.48-1.85,0-.53,1.85,2.63,4.22,3.43,2.37,7.65,3.69,9.23,2.9,1.85-.79,5.54.27,8.44,2.37,4.48,3.17,4.48,3.7.53,3.7a4.39,4.39,0,0,0-4.49,4.21c0,2.11-1,3.43-2.37,2.64s-2.9,1.06-3.69,4c-.79,3.16-2.64,4.74-4.22,4-1.32-1.05-2.9,1.06-3.43,4.22s-2.37,6.33-4.48,6.86c-2.64.79-3.16,0-2.11-3.17,1.06-2.37.53-4.22-.79-4.22s-3.16-2.9-4.22-6.33c-1.05-4.74-2.9-5.8-8.17-5.27-3.69.27-7.65,1.58-8.44,2.9s-5,3.69-9,5.54c-4,1.58-7.91,5.27-9,7.65a28.94,28.94,0,0,1-6.59,9c-2.64,2.37-3.95,5-2.9,6.06.79.8-.26,1.59-2.64,1.59-5.53,0-5.53,1.84-.52,6.85,9.49,9.76.26,18.46-9.5,9.23-6.85-6.33-7.64-6.33-16.08-3.16-3.43,1.31-11.07,3.69-17.14,5.27-6.33,1.84-11.34,4.48-11.34,6.06s-1.84,5.28-4.21,7.91c-3.43,3.69-3.7,5.54-1.32,8.44,2.11,2.37,2.11,4.22.52,5.27a4.32,4.32,0,0,0-1,5.54c.79,2.64-.26,4-4,4-2.91,0-6.07-2.11-6.86-4.75Z" transform="translate(-161.63 -412)"/>
    <path class="cls-12" d="M844.12,827.77c0-1.59-1.32-2.11-2.64-1.32-2.37,1.58-8.44-2.64-26.37-17.67-10.81-9.23-21.09-15.29-25.83-15.29s-5-.79-2.64-9.23l2.9-9,7.65,6.32c4.21,3.7,8.7,6.6,9.49,6.6,1.05,0,5.27,3.16,9.49,7.12,5.27,4.74,8.17,6.06,9,3.95.8-2.64,1.85-2.64,4.75-.26,2.11,1.58,3.69,4,3.69,5.27,0,3.69,8.7,12.92,12.13,12.92,1.85,0,4,1.85,4.75,4.22.79,2.11,2.9,3.16,4.48,2.11,1.84-1.06,2.64-.27,1.84,1.84-1.58,4.49-12.65,6.59-12.65,2.38Z" transform="translate(-161.63 -412)"/>
    <path class="cls-12" d="M789,728.63a26.21,26.21,0,0,1-10-10c-2.11-3.69-4.74-6.86-6.33-6.86-4.21,0-6.06,8.18-2.63,13.45,2.63,4.48,2.11,5-4.75,5-4.22,0-8.17-1.58-9.23-4a6.35,6.35,0,0,0-5.53-4c-2.9,0-4-2.9-4-10.55,0-8.43,1.06-10.54,5-10.54,3.43,0,5.28-2.38,6.59-7.91,1.06-6.33,2.9-7.91,8.18-7.91,3.69,0,6.59-1.32,6.59-2.9,0-5.28,8.7-10,18.19-10.29,5.8,0,8.44,1.06,7.38,3.43-4.74,13.18-4.74,15,2.11,21.89s6.86,8.7.79,17.66c-2.9,4-2.63,5.27,1.32,7.38,2.38,1.59,4.48,3.69,4.48,4.75C807.2,731.26,795.6,731.79,789,728.63Z" transform="translate(-161.63 -412)"/>
    <path class="cls-13" d="M911.4,583.52c10.19,2.2,11.55,4.05,12.61,6.16,1.58,2.37,4.48,3.42,8.44,2.37,4.48-1.06,6.32-.26,7.38,3.43.79,3.69-.53,5.53-5.27,6.85-7.12,1.85-11.34,0-11.34-5.27,0-4.22-7.39-7.38-11.34-4.75-1.58,1.06-7.38,1.59-12.92,1.06-7.12-.27-10.55.79-11.6,3.69a6.66,6.66,0,0,1-5.27,4,6.32,6.32,0,0,0-5.28,4c-2.11,5-9,5.27-9,.26,0-2.11,2.37-4.48,5-5.53,2.9-.8,6.85-5,8.7-9.5,3.16-7.12,4.22-7.91,12.65-6.32,7.91,1.31,2.9.41,8.89-.8" transform="translate(-161.63 -412)"/>
    <path class="cls-14" d="M770.29,1079.83c0-3.16-6.33-7.38-16.35-10.55-5.8-1.84-6.06-10.81-.79-20,2.9-5,3.69-5.53,4-1.84,0,5.54,5.27,6.06,5.27.53,0-7.39,11.87-30.06,16.09-31.12,2.37-.52,4.74-4.21,5.53-8.17,1.06-5.27.27-6.86-3.43-6.86-7.11,0-8.7-4.74-3.69-12.12l4.22-6.6-11.34.8c-10.28.79-11.33,1.58-12.65,8.7-1.32,6.59-1.85,7.12-3.43,3.16-1-2.64-1.84-8.44-1.84-12.66,0-8.17,1.31-7.91-30.33-9-9.22-.26-10.81-4.75-6.32-16.08,2.63-6.6,3.16-6.86,4.74-2.9,1.06,2.63,2.9,5,4.22,5a8.34,8.34,0,0,1,5.27,2.11c1.59,1,6.86,2.9,11.87,3.69,6.06,1.31,7.91,1.05,5.54-.53-2.64-2.11-1.32-3.69,6.59-7.12,19.51-8.44,21.88-10,20.56-12.39-.79-1.06,0-2.11,1.32-2.11,5.27,0,2.9-9.76-2.9-14l-6.06-4.21h6.06c3.43-.27,5.8-1.85,5.8-4.49,0-4.48-9-4.22-26.89.27-6.07,1.58-7.38,1-7.38-2.64,0-4-1.59-4.48-10.81-2.9-6.07,1-12.66,3.43-14.77,5.54-4.48,4.48-20.83,5.27-23.2,1-1.06-1.32-1.06-9.49,0-17.66,1.84-14.77,2.11-15.3,14-21.1,6.86-3.16,16.35-5.8,21.09-5.8,7.91,0,8.44-.52,8.44-9,0-5,.79-10.81,1.58-12.92,1.06-2.9-1.31-4.48-9.22-5.8-10.29-1.58-10.81-2.38-10.81-11.08,0-7.91.52-9,3.69-6.06a15.39,15.39,0,0,0,10,2.37c3.42-.26,8.17.27,10.81,1.58a8.79,8.79,0,0,0,8.43-1.31c3.17-2.64,5.54-2.64,10.81-.27,3.7,1.58,9,2.9,11.61,2.9,4.21,0,5.27,1.85,5.53,10,.27,16.61,6.07,42.19,11.08,48,2.37,2.9,8.17,6.06,12.39,7.12,4.48.79,7.91,2.9,7.91,5,0,1.84,2.11,3.43,4.74,3.43a45.32,45.32,0,0,1,9.76,1.31,74.89,74.89,0,0,0,7.38,1.32c1.06.27,1.85,1.85,1.85,3.69,0,3.43,13.18,12.4,18.45,12.4,1.59,0,6.86,2.9,11.61,6.59,10.54,7.91,20.83,8.43,27.94,1.32,5.28-5.28,5.28-5.28,5.28,7.91,0,7.38-1.06,13.18-2.64,13.18-1.32,0-2.64-1.58-2.64-3.69,0-4.75-6.32-6.07-25.31-6.33-14.76,0-27.42,5.27-33,13.45a4.51,4.51,0,0,1-3.42,2.11c-4.75-.8-6.07.26-8.7,7.11-4.49,10-9.23,16.88-14.51,20.83C804,997.3,796.13,1012.6,798,1014.7c.79.8,3.95,0,6.85-1.84,6.07-4,12.92-.26,12.92,6.33a3.6,3.6,0,0,0,3.69,3.69c1.85,0,4.49,2.63,5.54,6.06s2.11,4.48,3.16,2.64c1.85-5.27,6.07-4,6.07,1.58,0,9.76-3.17,13.45-11.08,13.45-9.75,0-21.62,6.85-26.1,15-5.8,10.81-28.74,25.57-28.74,18.19Z" transform="translate(-161.63 -412)"/>
    <path class="cls-14" d="M1158.67,1007.06c1.58-11.6-2.64-17.14-11.07-14.5-4.22,1.32-4.75.52-3.69-4,.79-2.9,3.42-5.27,5.8-5.27,3.42-.27,3.42-.79-.8-4-6.32-4.74-15.82-5.27-14-.52.79,1.58,2.11,5.27,3.16,7.91,1.32,3.16.53,4.48-2.1,4.48-2.38,0-5.28-4-7.12-9.23-2.64-7.91-3.7-9-8.18-6.59-3.42,2.11-5,1.84-5,0,0-4.22-11.33-7.65-16.61-4.75-3.69,1.85-3.95,3.43-1.84,7.39,2.37,4.74.26,7.38-3.43,4.74-.53-.53-3.17.79-5.54,2.9-3.16,2.64-5.27,2.9-6.33,1.06-1-1.59-5.8-4-10.81-5.28-10.81-2.63-16.87-14-7.91-14,3.17,0,5-1.32,4.22-3.17-1.58-4.74,8.18-17.92,12.92-17.92,2.38,0,6.59-1.32,9.76-3.17,3.16-1.58,10-2.64,15-2.37l9.22.79-5.27-6.33c-2.9-3.16-6.59-7.38-8.44-9-2.63-2.11.53-3.43,13.19-4.75,21.09-2.64,26.63-3.43,27.68-4.22a10.52,10.52,0,0,1,3.69-1c1.85,0,4.49-4.48,6.07-9.49,3.69-12.4,6.06-15.82,11.6-15.82,7.38,0,15.56,9.49,17.4,20.83,1.06,6.06,3.69,11.86,6.07,13.44,2.9,1.58,3.16,2.64,1.05,2.64-2.37,0-2.9,2.64-1.85,9,1.59,7.91,1.06,9-5.27,10.55-5.27,1.32-8.17.53-10.81-2.9-3.16-4.48-3.69-4.22-10.28,2.37-6.86,7.39-9.23,23.73-4,27.16,1.58.79,2.64,3.43,2.64,5.54,0,2.37,1.85,5.8,3.95,7.91,6.33,6.33,4.75,30.05-1.84,30.05-1.85,0-2.37-4.21-1.32-10.54Z" transform="translate(-161.63 -412)"/>
    <path class="cls-15" d="M845.44,1062.69c-4-3.43-17.14-6.06-17.14-3.16,0,1.32-3.17,1.58-7.12.52-6.59-1.84-7.38-3.16-7.38-12.39,0-8.43.79-10,4.74-9.49,2.64.53,7.12-1.58,9.49-4.48,2.64-3.17,6.6-5.54,9-5.54a6.23,6.23,0,0,0,5.27-3.43c.79-1.84,6.07-5,11.87-6.85,9.23-3.17,11.6-2.9,19,.79,4.75,2.37,10.28,4.22,12.39,4.22,2.38,0,3.43,3.69,3.17,12.65-.27,6.86-.79,10.29-1.58,7.91-2.11-8.43-12.92-5.8-17.67,4.49-7.38,15.29-17.14,21.35-24,14.76Z" transform="translate(-161.63 -412)"/>
    <path class="cls-15" d="M892.37,1010.22c-2.37-1.32-2.37-7.12-.53-22.94,1.58-11.6,2.11-26.63,1.32-33.48-1-6.86-.53-12.92.79-13.71,1.58-1.06,2.37-19.78,2.37-45.35-.26-40.34-.52-44-5.53-48.78-5-4.48-5-5.27-1.32-9.49,5-5.54,10.81-50.36,10.54-80.68-.26-23.47,3.17-25,6.07-2.64,1.32,8.44,2.37,17.66,2.9,20.56s1,10.29,1.32,16.35c0,6.33,1.32,11.87,2.63,12.92,3.43,1.85,2.9,11.08-.52,12.13-4,1.32-3.69,20.83,0,23.2,2.37,1.32,1.84,4-1.58,9.76-4.22,7.64-4.22,8.7-.27,19,2.37,5.8,3.17,11.34,2.11,12.13-1.32.79-2.37,18.19-2.11,38.5.27,32.43,1.06,36.91,4.48,35.59,14-4.48,16.09-4.75,16.09-1.85a3.17,3.17,0,0,1-3.17,2.91c-7.38.26-18.45,15.29-19.51,26.89-1.84,16.08-6.59,31.11-10,31.11a15.09,15.09,0,0,1-6.06-2.11Z" transform="translate(-161.63 -412)"/>
    <path class="cls-15" d="M721.51,935.61c-21.88-3.17-27.68-5.28-31.64-11.08-5.8-8.17-5-10,3.43-8.44,4,.79,5.54.53,3.69-.26-2.37-1.05-2.63-2.37-.52-5,4.48-5.27,6.59-29.53,2.9-34-1.59-1.85-2.38-5.28-1.59-7.38,1.06-2.64-1.31-5.54-7.38-8.44-5-2.38-10.55-4.22-12.13-4.22a2.89,2.89,0,0,1-2.9-2.64c0-1.58-2.9-4-6.59-5.27-10.55-4-9.23-16.35,2.37-23.73,5-2.9,10-7.65,10.81-10.28.79-3.17,5.28-5.54,11.08-6.86,5.53-1,11.07-3.43,12.65-5.54,2.38-3.42,4.22-2.9,12.66,2.9,7.91,5.28,11.07,6.07,15.29,4,7.38-4,6.07-8.17-2.11-7.38-6.59.79-7.38-.27-8.17-7.65-.53-4.75-2.11-8.7-3.43-8.7-1.58,0-1.84-1.06-1-2.64,2.9-4.48,6.59-2.9,9.75,4,2.11,4.48,5,6.59,9.76,6.59,11.6,0,13.71,3.16,11.34,14.76-2.11,10.29-2.11,10.29-13.71,9.5-6.33-.53-14.51-3.17-17.93-6.07-5.54-4.22-6.86-4.48-10.29-.79-4.74,4.48-5,4,6.59,11.08,4.75,2.9,9,6.32,9,7.38.26,3.16,7.12,13.18,8.7,12.39.79-.53,4.75,0,9.23.79,7.12,1.58,9.23,5,8.17,12.13-2.37,16.08-2.11,20.57,1.32,23.47a9.94,9.94,0,0,1,3.69,6.85c0,3.43-2.63,4-13.71,2.9-19.25-1.84-35.33,6.07-36.91,18.46-.53,4.74-.53,9,0,9.75,2.11,1.85,8.44-1.84,6.85-4.21-.79-1.32,1.06-2.38,4-2.38s8.17-1.32,11.86-2.9c8.44-4,25.32-.79,25.32,4.48,0,2.9,1,3.17,5,1.06a39.62,39.62,0,0,1,13.72-2.64,23.49,23.49,0,0,0,14.5-5.53c6.59-6.33,15.29-5,19.51,2.63,3.43,6.33-3.69,16.09-11.6,16.09-3.43,0-6.86,1.84-7.91,3.95-1.58,4.48-13.45,5.27-16.09,1.32-.79-1.32.79-2.64,3.69-2.64,8.44,0,6.6-4.74-2.37-6.59-9.75-2.11-21.09,4.22-21.09,11.6,0,4.22-8.18,9-13.18,7.65-.8,0-7.12-1.06-14.51-2.37Z" transform="translate(-161.63 -412)"/>
    <path class="cls-15" d="M828,694.88c-5.27-3.69-10.28-6.07-10.81-5.27-.79.52-3.42-1.85-6.06-5.81-3.43-5.27-3.69-7.38-1.32-9,4-2.37,23.47,10.28,23.73,15.29a3.53,3.53,0,0,0,3.69,3.17c4,0,6.86-5.54,6.86-13.45,0-3.43,1.84-5,5.54-5,5,0,5-.26,1.05-4.48-6.86-6.59-8.7-14.24-7.38-29,1-10.81,2.37-14,6.06-14,6.59,0,13.18-8.44,13.18-16.87,0-4.75,1.85-7.65,6.07-9.23,3.16-1.32,6.59-1.85,7.65-1.32,2.63,1.58-.8,11.6-4.22,11.6-1.59,0-4.49,3.43-6.33,7.65s-7.12,9.23-11.34,11.07c-7.91,3.16-8.17,3.69-6.85,16.35,1.31,14.24,3.16,16.35,17.66,18.72,12.66,1.84,15.82,8.7,7.38,15.29-3.42,2.64-9.22,4.75-13.18,4.75-5,0-8.17,2.11-10.55,7.12C844.38,702.26,839.37,702.53,828,694.88Z" transform="translate(-161.63 -412)"/>
    <path class="cls-16" d="M923.48,1127c-2.9-5-6.85-9.23-8.7-9.23s-4.75-2.64-6.06-5.8c-1.59-4-5.54-6.33-10-6.86-5.28-.53-7.12-2.11-6.07-4.48a4.78,4.78,0,0,0-1.58-5.54c-1.85-1.32-.79-2.63,3.16-4.22,6.07-2.11,6.33-4.48,1.06-22.41-1.32-4.48-.53-6.06,2.37-6.06,4.75,0,8.44-7.91,3.69-7.91-4.22-.27-15-9.49-15-12.92a2.71,2.71,0,0,0-2.63-2.9c-1.32,0-2.64-1.85-2.64-4s-1-4-2.64-4c-1.31,0-2.63-1.85-2.63-4,0-2.37,2.37-3.95,6.59-3.95,6.85,0,7.38-1.58,6.59-13.45-.26-4.22,1.32-7.65,4-8.7,6.59-2.37,9.22.53,9.22,9.76,0,12.39,4,24.52,10.29,31.11a23.17,23.17,0,0,1,5.53,13.71v7.38l6.86-5.27c4-3.17,8.17-5.54,9.23-5.54,4.74,0,2.11,4.48-4.22,7.91-4.22,2.11-6.59,5.8-6.59,9.76,0,3.42-1.06,6.06-2.64,6.06-1.32,0-2.64,1.85-2.64,4s-1.58,3.16-3.69,2.37c-5-1.85-7.64,3.16-5.8,11.07,1.85,7.12,7.12,8.18,12.92,2.64,3.17-3.43,4.48-3.43,8.7-.26,4.22,2.9,5,7.11,5,22.14,0,21.36-3.16,23.73-11.6,9.5Z" transform="translate(-161.63 -412)"/>
    <path class="cls-16" d="M796.66,755.26a35,35,0,0,0-11.87-4c-2.9,0-8.17-1.84-11.33-4.22-5.28-3.69-5.8-3.69-6.07.8,0,4.21-.26,4.21-2.11-.53-1.32-2.9-1.32-5.54,0-6.07,1.06-.52,0-3.16-2.37-6.06-5.27-6.06-15.82-6.59-23.2-1.06a20.85,20.85,0,0,1-10.81,4c-3.17,0-6.07,1.58-6.86,3.43-1.58,4.48-4.22,1.32-5-6.07-.79-5.8,0-6.32,7.65-5.8,7.91.79,27.68-7.12,31.11-12.65,2.9-4.75,5.54-2.9,17.14,13.18,9.23,12.92,12.92,15.82,19,15.82,4.22,0,7.39-1.32,7.39-3.43,0-5.53-7.91-15-12.66-15-4,0-4-.52-.53-2.63,5.54-3.69,17.4-3.17,20.3.79,3.43,4.74,9,28.21,7.39,31.11-2.38,3.43-9.5,2.9-17.14-1.58Z" transform="translate(-161.63 -412)"/>
    <path class="cls-9" d="M1134.15,825.66" transform="translate(-161.63 -412)"/>
  </g>
</svg>
